<ttFont>
<head>
    <!-- Most of this table will be recalculated by the compiler -->
    <tableVersion value="1.0"/>
    <fontRevision value="1.004"/>
    <checkSumAdjustment value="0x1e2ded4b"/>
    <magicNumber value="0x5f0f3cf5"/>
    <flags value="00000000 00000011"/>
    <unitsPerEm value="864"/>
    <created value="Fri Oct 19 00:21:00 2012"/>
    <modified value="Thu Oct 18 17:30:47 2012"/>
    <xMin value="-28"/>
    <yMin value="-200"/>
    <xMax value="865"/>
    <yMax value="865"/>
    <macStyle value="00000000 00000000"/>
    <lowestRecPPEM value="3"/>
    <fontDirectionHint value="2"/>
    <indexToLocFormat value="0"/>
    <glyphDataFormat value="0"/>
  </head>
          <CharString index="0">
            -10 8 -8 10 vhcurveto
            return
          </CharString>
          <CharString index="1">
            -102 callsubr
            hvcurveto
            return
          </CharString>
          <CharString index="2">
            -101 callsubr
            hvcurveto
            return
          </CharString>
          <CharString index="3">
            hstem
            0 126 612 126 vstem
            9 callsubr
            79 callgsubr
            hlineto
            -84 callgsubr
            -396 -99 callsubr
            30 -24 24 -30 vhcurveto
            return
          </CharString>
          <CharString index="4">
            -180 vlineto
            -10 8 -8 10 vhcurveto
            180 hlineto
            10 8 8 10 hvcurveto
            180 vlineto
            10 -8 8 -10 vhcurveto
            -180 hlineto
            -10 -8 -8 -10 hvcurveto
            324 hmoveto
            -96 callgsubr
            return
          </CharString>
          <CharString index="5">
            10 8 8 10 return
          </CharString>
          <CharString index="6">
            -10 -8 -8 -10 return
          </CharString>
          <CharString index="7">
            hlineto
            -106 callsubr
            return
          </CharString>
          <CharString index="8">
            -1 callgsubr
            -84 callgsubr
            -72 vlineto
            -96 callsubr
            -756 -97 callsubr
            756 vlineto
            return
          </CharString>
          <CharString index="9">
            vstem
            540 -33 callgsubr
            -179 -145 -145 -179 -64 18 -59 32 -50 hvcurveto
            -245 -244 -28 -28 0 -46 28 -28 rlinecurve
            -14 14 18 -7 19 hhcurveto
            18 19 7 14 14 hvcurveto
            244 245 rlineto
            -32 50 59 -18 64 hhcurveto
            179 145 145 31 callgsubr
            -145 145 -179 hvcurveto
            return
          </CharString>
          <CharString index="10">
            vlineto
            -98 callgsubr
            return
          </CharString>
          <CharString index="11">
            -89 callsubr
            hvcurveto
            return
          </CharString>
          <CharString index="12">
            -30 24 -24 30 vhcurveto
            return
          </CharString>
          <CharString index="13">
            -40 -32 32 40 40 32 32 40 40 32 -32 -38 callsubr
            hvcurveto
            return
          </CharString>
          <CharString index="14">
            306 -66 callgsubr
            -90 54 hlineto
            -94 callgsubr
            -54 -432 54 -69 callsubr
            endchar
          </CharString>
          <CharString index="15">
            rmoveto
            -76 callsubr
            -9 callsubr
            rcurveline
            -85 callgsubr
            -90 return
          </CharString>
          <CharString index="16">
            hlineto
            -96 callsubr
            return
          </CharString>
          <CharString index="17">
            -60 callsubr
            -7 2 -8 45 callsubr
            return
          </CharString>
          <CharString index="18">
            -30 -24 -24 -30 return
          </CharString>
          <CharString index="19">
            -104 callgsubr
            -828 -106 callgsubr
            -180 -91 callgsubr
            return
          </CharString>
          <CharString index="20">
            -105 callsubr
            -828 vlineto
            -10 8 -8 10 vhcurveto
            180 23 callgsubr
            return
          </CharString>
          <CharString index="21">
            -76 callgsubr
            -81 callgsubr
            return
          </CharString>
          <CharString index="22">
            -84 callsubr
            540 -97 callgsubr
            return
          </CharString>
          <CharString index="23">
            vlineto
            -95 callsubr
            return
          </CharString>
          <CharString index="24">
            -30 -24 24 30 30 24 14 callgsubr
            -24 -30 return
          </CharString>
          <CharString index="25">
            -136 -106 callgsubr
            -288 -107 callgsubr
            136 hlineto
            193 -193 -75 callsubr
            return
          </CharString>
          <CharString index="26">
            -71 callsubr
            vstem
            return
          </CharString>
          <CharString index="27">
            -75 callgsubr
            -26 callgsubr
            -66 callsubr
            return
          </CharString>
          <CharString index="28">
            -67 callsubr
            hlineto
            return
          </CharString>
          <CharString index="29">
            -7 4 -7 7 -3 vhcurveto
            7 -2 8 1 5 5 return
          </CharString>
          <CharString index="30">
            -75 callgsubr
            -81 callgsubr
            return
          </CharString>
          <CharString index="31">
            7 7 0 12 -7 7 return
          </CharString>
          <CharString index="32">
            -41 callgsubr
            rlinecurve
            -66 callsubr
            return
          </CharString>
          <CharString index="33">
            5 callsubr
            rrcurveto
            -63 callsubr
            return
          </CharString>
          <CharString index="34">
            -104 callgsubr
            -612 -99 callgsubr
            612 -100 callsubr
            return
          </CharString>
          <CharString index="35">
            -239 193 -193 239 return
          </CharString>
          <CharString index="36">
            hstem
            -61 callgsubr
            return
          </CharString>
          <CharString index="37">
            21 -21 hstem
            47 callgsubr
            cntrmask 01110000
            342 -33 callgsubr
            -87 callsubr
            -504 return
          </CharString>
          <CharString index="38">
            -97 callgsubr
            54 90 -51 callsubr
            return
          </CharString>
          <CharString index="39">
            239 -193 193 -239 return
          </CharString>
          <CharString index="40">
            -107 callgsubr
            828 return
          </CharString>
          <CharString index="41">
            7 3 4 7 7 vvcurveto
            return
          </CharString>
          <CharString index="42">
            90 hlineto
            -90 callsubr
            59 callsubr
            rcurveline
            -62 callsubr
            return
          </CharString>
          <CharString index="43">
            vstem
            -80 callgsubr
            -6 callgsubr
            return
          </CharString>
          <CharString index="44">
            -7 3 -23 callsubr
            hhcurveto
            return
          </CharString>
          <CharString index="45">
            -7 -7 0 -12 7 -7 return
          </CharString>
          <CharString index="46">
            -756 -91 callsubr
            return
          </CharString>
          <CharString index="47">
            -19 callsubr
            3 vhcurveto
            return
          </CharString>
          <CharString index="48">
            0 144 hstem
            14 callsubr
            vstem
            792 -10 callgsubr
            108 -100 callgsubr
            -720 -99 callgsubr
            return
          </CharString>
          <CharString index="49">
            -12 -90 -52 -53 -1 -1 -74 callsubr
            104 84 68 45 45 hvcurveto
            -3 23 25 -2 25 hhcurveto
            239 193 157 194 return
          </CharString>
          <CharString index="50">
            rmoveto
            2 -1 3 -1 2 vhcurveto
            -1 4 -4 4 -4 2 -214 85 rcurveline
            -9 3 -10 -4 -4 -8 -118 -236 rcurveline
            -4 -7 2 -8 5 -6 115 -115 rcurveline
            return
          </CharString>
          <CharString index="51">
            -90 hlineto
            -78 callsubr
            return
          </CharString>
          <CharString index="52">
            7 7 4 7 3 hvcurveto
            return
          </CharString>
          <CharString index="53">
            rmoveto
            -90 -72 72 90 89 72 73 90 89 73 -73 -89 -90 -73 -72 -89 hvcurveto
            endchar
          </CharString>
          <CharString index="54">
            -59 callgsubr
            0 return
          </CharString>
          <CharString index="55">
            -106 callsubr
            -67 callgsubr
            return
          </CharString>
          <CharString index="56">
            vlineto
            -106 callsubr
            return
          </CharString>
          <CharString index="57">
            -11 20 -14 19 -17 17 -91 91 -148 0 -91 -91 -92 -91 9 -148 143 -143 299 -300 rcurveline
            4 callgsubr
            return
          </CharString>
          <CharString index="58">
            63 58 -23 -39 44 hvcurveto
            -106 -105 -63 callgsubr
            342 -100 callsubr
            342 vlineto
            return
          </CharString>
          <CharString index="59">
            -42 callgsubr
            -27 callgsubr
            return
          </CharString>
          <CharString index="60">
            -119 -119 -97 -97 -119 return
          </CharString>
          <CharString index="61">
            -62 callgsubr
            rlinecurve
            return
          </CharString>
          <CharString index="62">
            -7 -7 0 -11 7 return
          </CharString>
          <CharString index="63">
            hmoveto
            10 8 8 10 hvcurveto
            828 vlineto
            34 callsubr
            -828 -107 callgsubr
            return
          </CharString>
          <CharString index="64">
            -144 -10 callsubr
            -144 hlineto
            return
          </CharString>
          <CharString index="65">
            5 -2 4 -3 4 vhcurveto
            return
          </CharString>
          <CharString index="66">
            7 -4 6 -6 3 vhcurveto
            return
          </CharString>
          <CharString index="67">
            7 -3 -7 4 -7 hhcurveto
            return
          </CharString>
          <CharString index="68">
            324 216 return
          </CharString>
          <CharString index="69">
            -40 -25 callgsubr
            return
          </CharString>
          <CharString index="70">
            -27 callsubr
            -51 -51 rcurveline
            -40 callgsubr
            return
          </CharString>
          <CharString index="71">
            -72 callgsubr
            -2 callgsubr
            rlineto
            endchar
          </CharString>
          <CharString index="72">
            rmoveto
            -85 85 -22 21 -34 0 -21 -21 rlinecurve
            -92 -92 -8 callgsubr
            92 92 21 21 0 34 -21 22 rlinecurve
            endchar
          </CharString>
          <CharString index="73">
            0 -18 callsubr
            144 return
          </CharString>
          <CharString index="74">
            234 -252 rmoveto
            -43 callsubr
            252 vmoveto
            -43 callsubr
            return
          </CharString>
          <CharString index="75">
            432 -88 callgsubr
            return
          </CharString>
          <CharString index="76">
            -288 -106 callgsubr
            return
          </CharString>
          <CharString index="77">
            -159 -129 -129 -159 return
          </CharString>
          <CharString index="78">
            846 -66 callgsubr
            return
          </CharString>
          <CharString index="79">
            5 5 1 8 -2 7 return
          </CharString>
          <CharString index="80">
            -7 7 -11 0 -7 -7 return
          </CharString>
          <CharString index="81">
            216 108 return
          </CharString>
          <CharString index="82">
            108 648 return
          </CharString>
          <CharString index="83">
            21 -21 2 callgsubr
            864 54 rmoveto
            hintmask 10100000
            180 -324 -36 144 return
          </CharString>
          <CharString index="84">
            7 -4 7 return
          </CharString>
          <CharString index="85">
            -430 rlineto
            5 14 15 3 16 hhcurveto
            -1 callsubr
            16 15 -3 -5 14 hvcurveto
            -64 430 rlineto
            endchar
          </CharString>
          <CharString index="86">
            -34 callgsubr
            7 -3 7 1 5 4 return
          </CharString>
          <CharString index="87">
            -28 callsubr
            rlinecurve
            -40 callsubr
            return
          </CharString>
          <CharString index="88">
            -23 callsubr
            -7 return
          </CharString>
          <CharString index="89">
            144 576 return
          </CharString>
          <CharString index="90">
            -30 24 -24 30 vhcurveto
            756 24 callgsubr
            -378 return
          </CharString>
          <CharString index="91">
            -108 -9 callgsubr
            -108 hlineto
            return
          </CharString>
          <CharString index="92">
            rmoveto
            -16 callsubr
            270 vmoveto
            -16 callsubr
            return
          </CharString>
          <CharString index="93">
            -91 callsubr
            -756 -85 callsubr
            return
          </CharString>
          <CharString index="94">
            5 callgsubr
            -5 45 callgsubr
            vhcurveto
            return
          </CharString>
          <CharString index="95">
            hlineto
            -10 -8 79 callsubr
            return
          </CharString>
          <CharString index="96">
            -26 callsubr
            216 return
          </CharString>
          <CharString index="97">
            144 144 return
          </CharString>
          <CharString index="98">
            -162 162 return
          </CharString>
          <CharString index="99">
            40 -32 32 -38 callsubr
            vhcurveto
            -126 vlineto
            -40 32 -32 40 40 32 32 40 vhcurveto
            return
          </CharString>
          <CharString index="100">
            108 13 callgsubr
            return
          </CharString>
          <CharString index="101">
            -504 -106 callgsubr
            return
          </CharString>
          <CharString index="102">
            -50 40 -40 50 50 40 40 50 return
          </CharString>
          <CharString index="103">
            45 36 75 callsubr
            -36 -45 return
          </CharString>
          <CharString index="104">
            -24 -30 -30 -24 return
          </CharString>
          <CharString index="105">
            180 hlineto
            return
          </CharString>
          <CharString index="106">
            756 hlineto
            return
          </CharString>
          <CharString index="107">
            -34 callgsubr
            -1 3 2 57 callsubr
            4 1 3 3 hvcurveto
            return
          </CharString>
          <CharString index="108">
            rmoveto
            -13 callgsubr
            44 callgsubr
            hvcurveto
            return
          </CharString>
          <CharString index="109">
            -55 callgsubr
            2 2 0 1 return
          </CharString>
          <CharString index="110">
            5 -2 5 -5 4 vhcurveto
            -504 414 return
          </CharString>
          <CharString index="111">
            7 -7 11 0 7 7 return
          </CharString>
          <CharString index="112">
            38 callgsubr
            78 callsubr
            return
          </CharString>
          <CharString index="113">
            2 3 0 return
          </CharString>
          <CharString index="114">
            77 callsubr
            11 -7 7 return
          </CharString>
          <CharString index="115">
            -81 callsubr
            864 return
          </CharString>
          <CharString index="116">
            810 -33 callgsubr
            return
          </CharString>
          <CharString index="117">
            -209 169 -169 209 209 169 169 209 return
          </CharString>
          <CharString index="118">
            342 90 rmoveto
            -5 callsubr
            vhcurveto
            -180 hlineto
            return
          </CharString>
          <CharString index="119">
            21 -21 8 callsubr
            return
          </CharString>
          <CharString index="120">
            -39 callgsubr
            75 callgsubr
            return
          </CharString>
          <CharString index="121">
            270 324 return
          </CharString>
          <CharString index="122">
            -5 5 -1 8 2 7 rlinecurve
            7 3 7 4 7 hhcurveto
            135 return
          </CharString>
          <CharString index="123">
            -239 -193 -157 -194 -117 70 -103 108 -64 return
          </CharString>
          <CharString index="124">
            108 vstem
            return
          </CharString>
          <CharString index="125">
            -25 callsubr
            -468 288 hstemhm
            -61 callgsubr
            hintmask 10100000
            return
          </CharString>
          <CharString index="126">
            -107 callgsubr
            108 -100 callsubr
            return
          </CharString>
          <CharString index="127">
            -12 callsubr
            504 vlineto
            75 callgsubr
            return
          </CharString>
          <CharString index="128">
            hlineto
            34 callsubr
            return
          </CharString>
          <CharString index="129">
            -100 callsubr
            108 -100 callgsubr
            return
          </CharString>
          <CharString index="130">
            -97 callgsubr
            216 -88 callgsubr
            return
          </CharString>
          <CharString index="131">
            162 -18 callgsubr
            216 return
          </CharString>
          <CharString index="132">
            216 54 callsubr
            return
          </CharString>
          <CharString index="133">
            rcurveline
            -91 -91 0 -148 91 -92 return
          </CharString>
          <CharString index="134">
            -59 callgsubr
            -18 callsubr
            vstem
            return
          </CharString>
          <CharString index="135" raw="1">
            04231d0b
          </CharString>
          <CharString index="136">
            vlineto
            -105 callsubr
            return
          </CharString>
          <CharString index="137">
            -101 callsubr
            vhcurveto
            return
          </CharString>
          <CharString index="138">
            360 144 return
          </CharString>
          <CharString index="139">
            rcurveline
            49 49 80 0 49 -49 49 -49 0 -80 -49 -49 return
          </CharString>
          <CharString index="140">
            rcurveline
            -10 10 14 -5 13 hhcurveto
            13 14 5 10 10 hvcurveto
            return
          </CharString>
          <CharString index="141">
            -104 callgsubr
            -31 callsubr
            return
          </CharString>
          <CharString index="142">
            -107 callsubr
            180 -100 callsubr
            return
          </CharString>
          <CharString index="143">
            -53 callsubr
            144 324 144 vstem
            144 return
          </CharString>
          <CharString index="144">
            -100 callsubr
            endchar
          </CharString>
          <CharString index="145">
            -41 callsubr
            -7 3 -7 -1 -5 -4 return
          </CharString>
          <CharString index="146">
            29 28 0 45 -29 28 -28 29 -45 0 -28 -29 return
          </CharString>
          <CharString index="147">
            108 50 callgsubr
            return
          </CharString>
          <CharString index="148">
            rlineto
            -75 callgsubr
            return
          </CharString>
          <CharString index="149">
            vlineto
            -17 -16 8 14 -10 hvcurveto
            return
          </CharString>
          <CharString index="150">
            126 -126 return
          </CharString>
          <CharString index="151">
            162 540 return
          </CharString>
          <CharString index="152">
            -1 -5 -5 return
          </CharString>
          <CharString index="153">
            61 callgsubr
            860 return
          </CharString>
          <CharString index="154">
            -55 -14 67 -53 53 -32 -21 398 68 hstemhm
            return
          </CharString>
          <CharString index="155">
            58 callsubr
            252 144 0 162 return
          </CharString>
          <CharString index="156">
            rrcurveto
            0 vlineto
            1 3 0 2 2 vvcurveto
            endchar
          </CharString>
          <CharString index="157">
            1 2 1 2 2 return
          </CharString>
          <CharString index="158">
            hlineto
            -27 79 rlineto
            16 -5 -18 13 -16 hhcurveto
            return
          </CharString>
          <CharString index="159">
            -10 callsubr
            72 144 72 144 return
          </CharString>
          <CharString index="160">
            7 6 4 6 3 hvcurveto
            return
          </CharString>
          <CharString index="161">
            144 31 callsubr
            return
          </CharString>
          <CharString index="162">
            -7 -3 -7 -4 -7 hhcurveto
            return
          </CharString>
          <CharString index="163">
            -21 -21 0 -35 21 -21 return
          </CharString>
          <CharString index="164">
            -1 3 hhcurveto
            4 return
          </CharString>
          <CharString index="165">
            162 144 return
          </CharString>
          <CharString index="166">
            -162 -162 return
          </CharString>
          <CharString index="167">
            105 234 21 144 21 234 return
          </CharString>
          <CharString index="168">
            66 callgsubr
            vhcurveto
            return
          </CharString>
          <CharString index="169">
            -3 -96 -150 -172 vvcurveto
            -164 return
          </CharString>
          <CharString index="170">
            vvcurveto
            45 -36 36 -45 vhcurveto
            -189 hlineto
            return
          </CharString>
          <CharString index="171">
            -108 hlineto
            endchar
          </CharString>
          <CharString index="172">
            -342 -107 callgsubr
            return
          </CharString>
          <CharString index="173">
            75 190 76 hstem
            73 85 vstem
            return
          </CharString>
          <CharString index="174">
            -139 -113 -113 -139 return
          </CharString>
          <CharString index="175">
            30 -24 24 -30 -89 callsubr
            return
          </CharString>
          <CharString index="176">
            504 -100 callgsubr
            return
          </CharString>
          <CharString index="177">
            -396 -107 callgsubr
            return
          </CharString>
          <CharString index="178">
            vstem
            641 312 rmoveto
            138 return
          </CharString>
          <CharString index="179">
            hlineto
            -25 callgsubr
            return
          </CharString>
          <CharString index="180" raw="1">
            07260a0b
          </CharString>
          <CharString index="181">
            hlineto
            -27 -23 -20 -26 return
          </CharString>
          <CharString index="182">
            -36 -45 -45 -36 return
          </CharString>
          <CharString index="183">
            126 126 return
          </CharString>
          <CharString index="184">
            rmoveto
            7 7 0 return
          </CharString>
          <CharString index="185">
            -8 2 -7 return
          </CharString>
          <CharString index="186">
            8 10 hvcurveto
            return
          </CharString>
        <CharString name=".notdef">
          0 108 648 -7 callsubr
          864 vmoveto
          -864 864 864 vlineto
          -184 -108 rmoveto
          -248 -248 -248 248 rlineto
          -76 -76 rmoveto
          248 -248 -248 -248 rlineto
          76 -76 rmoveto
          248 248 248 -248 rlineto
          76 76 rmoveto
          -248 248 248 248 rlineto
          endchar
        </CharString>
        <CharString name="A">
          41 21 -21 181 75 hstem
          12 555 vstem
          567 hmoveto
          -224 624 rlineto
          -97 hlineto
          -234 -624 rlineto
          86 hlineto
          65 181 rlineto
          251 hlineto
          61 -181 rlineto
          -93 256 rmoveto
          -192 hlineto
          100 276 rlineto
          endchar
        </CharString>
        <CharString name="B">
          41 0 71 219 69 192 73 hstemhm
          62 86 281 83 -53 84 hintmask 11110100
          543 187 rmoveto
          74 -49 53 -63 22 vhcurveto
          hintmask 11111000
          54 20 27 57 53 vvcurveto
          104 -2 -79 54 -87 hhcurveto
          -282 -624 287 hlineto
          hintmask 11110100
          103 91 72 115 hvcurveto
          hintmask 11111000
          -114 261 rmoveto
          -45 -2 -31 -44 -84 hhcurveto
          -164 192 162 hlineto
          92 -2 27 -36 -65 vvcurveto
          hintmask 11110100
          30 -272 rmoveto
          -47 -2 -33 -58 -81 hhcurveto
          -195 219 167 hlineto
          119 -2 25 -43 -69 vvcurveto
          endchar
        </CharString>
        <CharString name="C">
          89 -17 75 506 77 hstem
          36 88 vstem
          592 229 rmoveto
          -83 hlineto
          -106 -16 -66 -65 -110 hhcurveto
          -135 -55 135 124 -3 hvcurveto
          133 3 55 114 152 hhcurveto
          84 68 -43 -85 17 hvcurveto
          82 hlineto
          167 -25 -150 38 -88 hhcurveto
          -190 -6 -96 -157 -161 vvcurveto
          -149 71 -185 219 154 96 112 134 16 vhcurveto
          endchar
        </CharString>
        <CharString name="CR">
          -539 endchar
        </CharString>
        <CharString name="D">
          89 0 71 480 73 hstem
          69 86 342 87 vstem
          584 334 rmoveto
          214 -6 -143 76 -104 hhcurveto
          -262 -624 265 hlineto
          162 3 88 157 174 vvcurveto
          -87 -7 rmoveto
          -144 -65 -112 -103 vhcurveto
          -174 480 164 hlineto
          131 47 -109 -115 hvcurveto
          endchar
        </CharString>
        <CharString name="E">
          41 0 75 208 66 callsubr
          534 hmoveto
          75 -376 208 342 75 -342 190 371 76 -456 65 callgsubr
        </CharString>
        <CharString name="F">
          -9 21 -21 283 66 callsubr
          505 548 rmoveto
          76 -432 -624 85 283 306 75 -306 190 vlineto
          endchar
        </CharString>
        <CharString name="G">
          135 -14 67 -32 -21 260 72 232 73 hstemhm
          41 86 405 78 hintmask 01111100
          610 hmoveto
          332 -272 -72 194 vlineto
          hintmask 10111100
          -2 -76 -14 -43 -53 -43 rrcurveto
          -30 -39 -41 -15 -51 hhcurveto
          -118 -87 88 171 158 89 94 116 87 76 -34 -96 24 hvcurveto
          81 hlineto
          134 -18 -121 69 -125 hhcurveto
          -200 -2 -95 -163 -155 vvcurveto
          -188 81 -143 209 vhcurveto
          90 3 77 40 38 54 rrcurveto
          hintmask 01111100
          20 -83 rlineto
          endchar
        </CharString>
        <CharString name="H">
          89 21 -21 290 75 hstem
          66 85 326 85 vstem
          562 hmoveto
          624 -85 -259 -326 259 -85 -624 85 290 326 -290 vlineto
          endchar
        </CharString>
        <CharString name="I">
          -299 -59 callgsubr
          78 85 vstem
          163 hmoveto
          624 -85 65 callgsubr
        </CharString>
        <CharString name="J">
          -105 -17 72 hstem
          14 79 193 86 vstem
          372 168 rmoveto
          456 -86 -461 vlineto
          -74 -1 -29 -34 -69 hhcurveto
          -64 -30 32 69 hvcurveto
          44 -79 -61 vlineto
          -68 42 -88 136 vhcurveto
          98 2 82 47 136 vvcurveto
          endchar
        </CharString>
        <CharString name="K">
          41 -59 callgsubr
          64 85 vstem
          575 hmoveto
          -267 372 260 252 rlineto
          -116 hlineto
          -303 -304 rlineto
          304 -85 -624 85 219 vlineto
          98 93 219 -312 rlineto
          endchar
        </CharString>
        <CharString name="L">
          -55 0 75 hstem
          64 85 vstem
          466 hmoveto
          75 -317 549 -85 65 callgsubr
        </CharString>
        <CharString name="M">
          183 0 95 -74 -21 hstemhm
          62 80 436 83 hintmask 01110000
          661 hmoveto
          624 -120 vlineto
          hintmask 10110000
          -178 -529 -180 529 rlineto
          -121 -624 80 523 hlineto
          178 -523 rlineto
          84 hlineto
          174 524 rlineto
          -524 vlineto
          endchar
        </CharString>
        <CharString name="N">
          89 0 119 -98 -21 hstemhm
          66 82 332 82 hintmask 01110000
          562 hmoveto
          624 -82 vlineto
          hintmask 10110000
          -505 vlineto
          -314 505 rlineto
          -100 -624 82 503 hlineto
          318 -503 rlineto
          endchar
        </CharString>
        <CharString name="NULL">
          -539 endchar
        </CharString>
        <CharString name="O">
          67 callgsubr
          36 86 434 85 71 callsubr
          -72 187 -230 vhcurveto
          -207 62 callsubr
          93 -161 210 vhcurveto
          273 4 29 229 92 vvcurveto
          -85 hmoveto
          -148 -79 -102 -138 vhcurveto
          -135 2 -82 99 149 vvcurveto
          154 89 96 128 vhcurveto
          138 -2 79 -102 -146 vvcurveto
          endchar
        </CharString>
        <CharString name="P">
          41 21 -21 263 71 217 73 hstem
          73 85 294 87 vstem
          539 448 rmoveto
          116 -3 -81 60 -101 hhcurveto
          -281 -624 85 263 196 hlineto
          137 3 48 93 89 vvcurveto
          -87 hmoveto
          -76 -1 -41 -38 -84 hhcurveto
          -168 217 171 hlineto
          82 41 -35 -68 hvcurveto
          endchar
        </CharString>
        <CharString name="Q">
          67 callgsubr
          34 87 433 87 71 callsubr
          -74 187 -229 vhcurveto
          -208 62 callsubr
          94 -161 210 67 52 16 27 41 vhcurveto
          96 -75 41 51 -85 66 rlineto
          65 64 26 86 90 vvcurveto
          -87 hmoveto
          -83 -23 -60 -44 -46 vhcurveto
          -80 61 -43 -53 65 -49 rlineto
          -13 -26 -31 -7 -34 hhcurveto
          -136 2 -81 99 149 vvcurveto
          154 88 96 129 vhcurveto
          138 -2 78 -102 -146 vvcurveto
          endchar
        </CharString>
        <CharString name="R">
          89 21 -21 266 73 212 73 hstem
          65 85 324 86 vstem
          584 hmoveto
          -7 6 -5 9 -4 10 -16 40 2 69 -8 72 -5 51 -27 36 -45 14 rrcurveto
          57 30 34 48 67 vvcurveto
          121 -3 -96 51 -97 hhcurveto
          -299 -624 85 266 212 hlineto
          81 -1 17 -46 4 -29 5 -31 -5 -105 25 -54 rrcurveto
          -15 444 rmoveto
          -63 -48 -42 -62 vhcurveto
          -214 212 221 hlineto
          76 -2 27 -47 -58 vvcurveto
          endchar
        </CharString>
        <CharString name="S">
          41 -13 72 507 71 hstemhm
          43 78 -59 82 299 78 -65 81 hintmask 11010100
          537 175 rmoveto
          90 -46 53 -94 21 vhcurveto
          -178 41 rlineto
          -50 11 -25 25 40 vvcurveto
          89 76 21 66 vhcurveto
          hintmask 11011000
          76 -3 81 -32 -92 vvcurveto
          78 hlineto
          34 -3 -1 164 -239 hhcurveto
          -152 -64 -91 -100 hvcurveto
          3 -101 81 -35 85 -19 rrcurveto
          hintmask 11100100
          167 -37 58 -9 -81 vvcurveto
          -81 -84 -24 -79 vhcurveto
          -83 3 -89 30 114 vvcurveto
          -78 hlineto
          -153 1 94 -66 155 hhcurveto
          hintmask 11010100
          140 104 62 126 hvcurveto
          endchar
        </CharString>
        <CharString name="T">
          -9 21 -21 548 76 hstem
          222 85 vstem
          519 548 rmoveto
          76 -507 -76 210 -548 85 548 vlineto
          endchar
        </CharString>
        <CharString name="U">
          89 -12 74 hstem
          68 85 322 85 vstem
          560 205 rmoveto
          419 -85 -409 vlineto
          -99 -3 -64 -54 -100 hhcurveto
          -101 -54 60 95 hvcurveto
          407 -85 -423 vlineto
          -134 2 76 -79 162 hhcurveto
          176 2 76 100 115 vvcurveto
          endchar
        </CharString>
        <CharString name="V">
          41 0 91 -70 -21 hstemhm
          17 544 hintmask 01100000
          561 624 rmoveto
          -85 hlineto
          hintmask 10100000
          -184 -533 -177 533 rlineto
          -98 hlineto
          227 -624 rlineto
          90 hlineto
          endchar
        </CharString>
        <CharString name="W">
          280 0 115 -94 -21 hstemhm
          14 792 hintmask 01100000
          806 624 rmoveto
          -94 hlineto
          hintmask 10100000
          -115 -509 -143 509 rlineto
          -91 hlineto
          -143 -509 -115 509 rlineto
          -91 hlineto
          162 -624 rlineto
          89 hlineto
          146 517 142 -517 rlineto
          88 hlineto
          endchar
        </CharString>
        <CharString name="X">
          41 -59 callgsubr
          16 546 vstem
          562 hmoveto
          -218 319 209 305 rlineto
          -101 hlineto
          -159 -239 -158 239 rlineto
          -106 hlineto
          210 -304 -223 -320 rlineto
          101 hlineto
          173 256 167 -256 rlineto
          endchar
        </CharString>
        <CharString name="Y">
          41 -59 callgsubr
          247 84 vstem
          566 624 rmoveto
          -94 hlineto
          -179 -300 -178 300 rlineto
          -102 hlineto
          234 -375 rlineto
          -249 84 249 vlineto
          endchar
        </CharString>
        <CharString name="Z">
          -9 0 76 473 75 hstem
          20 490 vstem
          510 hmoveto
          76 -384 vlineto
          384 475 rlineto
          73 -462 -75 354 vlineto
          -382 -480 rlineto
          -69 vlineto
          endchar
        </CharString>
        <CharString name="a">
          -55 -14 62 -57 59 -28 -21 404 61 hstemhm
          30 79 223 79 hintmask 00111100
          461 1 rmoveto
          hintmask 01011100
          55 vlineto
          -46 -16 -4 21 28 vvcurveto
          243 vlineto
          93 -87 41 -85 vhcurveto
          -129 -2 -56 -73 -76 vvcurveto
          71 hlineto
          63 2 43 27 59 hhcurveto
          71 34 -32 -45 -21 -14 -25 -50 -9 hvcurveto
          -99 -20 -141 0 -139 vvcurveto
          hintmask 10011100
          -68 56 -60 88 vhcurveto
          74 2 53 31 37 40 rrcurveto
          hintmask 00111100
          -45 1 26 -23 46 hhcurveto
          26 16 6 3 8 hvcurveto
          -129 151 rmoveto
          hintmask 10011100
          -65 -86 -38 -56 -48 -33 22 45 100 168 -18 55 36 vhcurveto
          endchar
        </CharString>
        <CharString name="action">
          90 40 callsubr
          0 108 486 17 callsubr
          594 240 rmoveto
          -42 -486 432 140 vlineto
          46 33 55 21 65 10 rrcurveto
          44 -306 vlineto
          -59 -49 -49 -59 hvcurveto
          -432 vlineto
          -59 49 -49 59 vhcurveto
          486 hlineto
          59 49 49 59 hvcurveto
          116 vlineto
          -108 -74 rlineto
          262 297 rmoveto
          -342 234 -5 4 -8 0 -5 -3 rlinecurve
          -11 callgsubr
          -127 vlineto
          -102 -3 -79 -31 -53 -57 rrcurveto
          -79 -83 7 -110 -4 vvcurveto
          1 -8 5 -7 8 -2 rrcurveto
          4 hlineto
          6 6 3 6 3 hvcurveto
          1 52 77 5 220 hvcurveto
          -127 -34 callgsubr
          -1 2 3 57 callsubr
          3 1 2 3 hvcurveto
          342 234 rlineto
          5 3 3 6 6 vvcurveto
          6 -3 5 -5 4 vhcurveto
          endchar
        </CharString>
        <CharString name="addcalendar">
          0 144 -104 callsubr
          -198 -594 rmoveto
          -126 -126 -108 43 callsubr
          108 76 callsubr
          108 59 callgsubr
          64 callsubr
        </CharString>
        <CharString name="airplay">
          162 7 callgsubr
          810 rmoveto
          -61 callsubr
          -540 -84 callsubr
          89 hlineto
          -9 callgsubr
          rlineto
          -143 432 648 -432 -143 hlineto
          108 -108 rlineto
          89 -32 callgsubr
          -126 -756 rmoveto
          -504 33 callgsubr
          252 252 rcurveline
          7 7 12 0 7 -7 252 -252 rcurveline
          5 -5 1 -8 -2 -7 rrcurveto
          55 callsubr
          endchar
        </CharString>
        <CharString name="alert">
          0 78 callgsubr
          306 234 -81 callsubr
          854 130 rmoveto
          -342 684 rlineto
          31 -15 -31 19 -34 hhcurveto
          -34 -31 -19 -31 -16 hvcurveto
          -342 -684 -13 -28 1 -33 16 -26 rlinecurve
          -27 17 29 -16 31 hhcurveto
          684 hlineto
          31 29 16 27 17 hvcurveto
          16 26 1 33 -14 28 rrcurveto
          -476 500 rmoveto
          108 -306 -108 306 hlineto
          54 -540 rmoveto
          -94 callsubr
          endchar
        </CharString>
        <CharString name="attach">
          0 108 340 109 199 18 callgsubr
          0 108 469 107 72 17 callsubr
          716 538 rmoveto
          24 -34 14 -39 2 -40 39 39 rcurveline
          20 callgsubr
          -396 -396 17 callgsubr
          243 243 rcurveline
          56 56 0 91 -56 57 -56 56 -91 0 -57 -56 -152 -153 rcurveline
          -22 -21 0 -34 22 -21 21 -22 34 0 21 22 153 152 rcurveline
          14 14 23 0 14 -14 14 -14 0 -23 -14 -14 -243 -242 37 callgsubr
          396 396 32 callsubr
          -3 -3 rcurveline
          endchar
        </CharString>
        <CharString name="b">
          47 callsubr
          49 78 252 80 hintmask 00111100
          hintmask 10011100
          459 240 rmoveto
          133 -4 -78 93 -111 hhcurveto
          -65 -2 -42 -25 -32 -42 rrcurveto
          227 -78 vlineto
          hintmask 00111100
          -624 69 vlineto
          hintmask 10011100
          6 56 rlineto
          -46 27 50 -24 57 hhcurveto
          155 50 140 114 -4 hvcurveto
          -80 -13 rmoveto
          hintmask 01011100
          -102 -42 -72 -81 vhcurveto
          -93 3 -39 67 105 vvcurveto
          71 31 99 97 vhcurveto
          hintmask 10011100
          79 48 -58 -113 hvcurveto
          endchar
        </CharString>
        <CharString name="backspace">
          108 40 callsubr
          756 17 callsubr
          810 756 rmoveto
          -502 hlineto
          -27 callgsubr
          -279 -281 -21 -21 0 -34 21 -21 rlinecurve
          279 -281 41 callsubr
          502 -32 callgsubr
          -54 -468 rmoveto
          -72 -72 -144 144 76 callgsubr
          -72 72 -10 callsubr
          -144 144 72 72 144 -144 -10 callsubr
          72 -72 76 callgsubr
          144 -144 rlineto
          endchar
        </CharString>
        <CharString name="ban">
          -34 callsubr
          hstem
          0 144 576 144 -57 callgsubr
          -720 hmoveto
          -5 callgsubr
          57 53 -16 -29 44 vhcurveto
          -397 -397 rlineto
          -29 44 -16 53 57 vvcurveto
          531 154 rmoveto
          29 -44 16 -53 -57 vvcurveto
          -30 callsubr
          -57 -53 16 29 -44 vhcurveto
          397 397 rlineto
          endchar
        </CharString>
        <CharString name="barchart">
          -70 callsubr
          -432 rmoveto
          -105 callsubr
          -396 -102 callgsubr
          396 -100 callgsubr
          468 216 rmoveto
          -105 callsubr
          -612 -102 callgsubr
          612 -100 callgsubr
          endchar
        </CharString>
        <CharString name="battery">
          324 216 8 callsubr
          522 -66 callgsubr
          -90 54 hlineto
          -94 callgsubr
          -648 -68 callgsubr
          648 -69 callsubr
          180 vlineto
          endchar
        </CharString>
        <CharString name="book">
          -46 callgsubr
          -9 callgsubr
          vstem
          756 -29 callsubr
          -522 hlineto
          -60 -48 -48 -60 hvcurveto
          -648 vlineto
          -60 48 -48 60 vhcurveto
          522 -4 callgsubr
          -100 callgsubr
          -522 108 540 90 hlineto
          endchar
        </CharString>
        <CharString name="bookmark">
          22 -21 hstem
          216 432 vstem
          648 810 rmoveto
          -94 callgsubr
          -324 -91 callsubr
          -792 vlineto
          -78 callsubr
          185 185 rcurveline
          185 -185 rlineto
          -80 callsubr
          792 vlineto
          endchar
        </CharString>
        <CharString name="box">
          -46 callgsubr
          0 111 642 111 vstem
          861 611 rmoveto
          -72 216 rlineto
          22 -7 -21 15 -23 hhcurveto
          -612 hlineto
          -23 -21 -15 -22 -7 hvcurveto
          -72 -216 rlineto
          -2 -5 -1 -6 -6 vvcurveto
          -540 -97 callsubr
          540 vlineto
          6 -1 6 -2 5 vhcurveto
          -750 -17 rmoveto
          54 162 rlineto
          534 hlineto
          54 -162 rlineto
          -642 hlineto
          endchar
        </CharString>
        <CharString name="briefcase">
          774 90 hstem
          270 78 callgsubr
          vstem
          810 702 rmoveto
          -216 90 hlineto
          27 -14 19 -29 11 vhcurveto
          10 -25 -38 5 -56 hhcurveto
          -56 -38 -5 -10 -25 hvcurveto
          -29 -11 -14 -19 -27 vvcurveto
          -90 -216 vlineto
          -96 callsubr
          -486 -97 callsubr
          486 -88 callgsubr
          -450 72 rmoveto
          144 -72 -144 72 hlineto
          endchar
        </CharString>
        <CharString name="buildings">
          21 -21 -2 callgsubr
          -18 callgsubr
          -18 callgsubr
          hstem
          324 108 108 55 callgsubr
          cntrmask 00001110
          234 hmoveto
          -216 20 callsubr
          216 22 callgsubr
          612 49 callgsubr
          -828 -107 callgsubr
          198 162 108 -162 198 23 callgsubr
          -306 -540 -15 callsubr
          216 -270 -15 callsubr
          endchar
        </CharString>
        <CharString name="c">
          -105 -14 70 342 69 hstem
          25 81 vstem
          418 160 rmoveto
          -74 hlineto
          -69 -12 -39 -35 -61 hhcurveto
          -74 -52 77 94 129 59 42 67 61 46 -35 -61 6 hvcurveto
          73 hlineto
          127 -12 -94 38 -83 hhcurveto
          -108 -96 -77 -163 -145 89 -96 112 82 96 43 131 14 hvcurveto
          endchar
        </CharString>
        <CharString name="calendar">
          0 126 144 108 77 callgsubr
          -180 342 hstemhm
          0 126 144 78 callgsubr
          144 126 hintmask 11101111
          9 callsubr
          79 callgsubr
          hlineto
          -79 callgsubr
          hintmask 00010100
          108 -396 vlineto
          hintmask 10101001
          -99 callsubr
          hintmask 11101111
          -94 callgsubr
          -540 -738 rmoveto
          -43 callsubr
          252 vmoveto
          -144 hlineto
          hintmask 00010110
          -10 callsubr
          vlineto
          hintmask 11101111
          -144 vlineto
          -33 callsubr
          -33 callsubr
          endchar
        </CharString>
        <CharString name="camera">
          -9 callgsubr
          56 callgsubr
          14 callsubr
          270 vstem
          810 648 rmoveto
          -162 51 callsubr
          -300 hlineto
          -17 -17 -13 -16 -6 hvcurveto
          -26 -79 rlineto
          -162 -91 callsubr
          -432 vlineto
          -17 callsubr
          -432 -54 callsubr
        </CharString>
        <CharString name="cart">
          0 180 576 18 callgsubr
          252 180 108 180 vstem
          252 90 rmoveto
          -5 callsubr
          50 -40 40 -50 -50 -40 -40 -50 vhcurveto
          288 hmoveto
          -5 callsubr
          50 -40 40 -50 -50 -40 -40 -50 vhcurveto
          323 590 rmoveto
          2 5 -1 6 -4 4 rrcurveto
          4 -3 -6 3 -5 hhcurveto
          -613 hlineto
          -30 121 rlineto
          24 -6 -22 17 -25 hhcurveto
          -96 hlineto
          -89 callsubr
          -30 24 -24 30 hvcurveto
          54 hlineto
          110 -445 rlineto
          -24 5 22 -17 25 hhcurveto
          431 hlineto
          25 21 17 24 6 hvcurveto
          endchar
        </CharString>
        <CharString name="caution">
          0 -39 callsubr
          324 hstem
          0 108 648 108 -103 callgsubr
          -324 -540 rmoveto
          216 648 -216 -648 vlineto
          endchar
        </CharString>
        <CharString name="cell">
          0 54 108 54 504 144 hstem
          162 90 360 90 vstem
          648 -33 callgsubr
          -432 -91 callsubr
          -756 -84 callsubr
          432 -97 callgsubr
          756 -88 callgsubr
          -216 -810 rmoveto
          -90 callgsubr
          180 162 rmoveto
          -360 504 360 -504 hlineto
          endchar
        </CharString>
        <CharString name="chat">
          12 callsubr
          459 rmoveto
          70 callgsubr
          16 callsubr
          vhcurveto
          -58 callsubr
          hvcurveto
          endchar
        </CharString>
        <CharString name="check">
          90 684 -81 callsubr
          859 617 rmoveto
          -76 callsubr
          59 callgsubr
          rcurveline
          -62 callgsubr
          -383 -384 rcurveline
          -167 168 -46 callsubr
          -7 callgsubr
          306 -306 rlineto
          -77 callsubr
          522 522 rlineto
          endchar
        </CharString>
        <CharString name="checkcalendar">
          0 140 -104 callsubr
          -432 -724 rmoveto
          -182 182 76 76 106 -106 214 214 76 -76 -290 -290 rlineto
          endchar
        </CharString>
        <CharString name="clock">
          -46 callgsubr
          0 864 -103 callgsubr
          191 -623 rmoveto
          -230 130 -4 3 80 callgsubr
          4 rlinecurve
          -14 14 -7 19 18 vvcurveto
          324 72 vlineto
          66 -288 176 -176 -51 -51 rlineto
          endchar
        </CharString>
        <CharString name="cloud">
          -25 callsubr
          hstem
          0 864 -64 callsubr
          459 hlineto
          6 callgsubr
          hvcurveto
          endchar
        </CharString>
        <CharString name="columns">
          -70 callsubr
          hmoveto
          -87 callsubr
          468 hmoveto
          -87 callsubr
          endchar
        </CharString>
        <CharString name="compass">
          30 callgsubr
          648 vstem
          748 3 rmoveto
          7 5 3 8 -3 8 -306 828 rcurveline
          7 -3 -7 5 -7 hhcurveto
          -8 -6 -5 -7 -3 hvcurveto
          -306 -828 -3 -8 3 -8 7 -5 rlinecurve
          7 -5 9 1 6 5 294 266 rcurveline
          294 -266 rlineto
          -3 3 5 -1 4 hhcurveto
          3 4 1 2 3 hvcurveto
          endchar
        </CharString>
        <CharString name="compose">
          108 69 hstem
          108 70 vstem
          859 733 7 callsubr
          -101 101 rcurveline
          -27 callsubr
          -49 -49 rcurveline
          43 callsubr
          49 49 rlineto
          -265 -373 rmoveto
          -9 callgsubr
          rlineto
          -360 vlineto
          -59 -49 -49 -59 vhcurveto
          -486 hlineto
          -59 -49 49 59 hvcurveto
          540 vlineto
          59 49 49 59 vhcurveto
          414 hlineto
          -108 -108 rlineto
          -306 -540 486 252 hlineto
          36 396 rmoveto
          43 callsubr
          -376 -376 rlineto
          -1 -1 -2 -2 -2 hhcurveto
          -173 -72 rlineto
          1 callgsubr
          -1 -1 vhcurveto
          -2 -2 -1 -2 hhcurveto
          -4 -5 2 4 -3 hvcurveto
          -5 5 -2 7 2 6 rrcurveto
          1 1 1 callgsubr
          vvcurveto
          72 173 rlineto
          2 2 2 1 1 vhcurveto
          376 376 rlineto
          endchar
        </CharString>
        <CharString name="connection">
          21 -21 31 callsubr
          hstem
          72 144 432 144 vstem
          864 720 rmoveto
          79 -65 65 -79 -80 -64 -65 -79 -53 29 -47 43 -25 vhcurveto
          -91 -91 vlineto
          43 -25 -47 29 -53 hhcurveto
          -53 -47 -29 -43 -25 hvcurveto
          -163 72 callsubr
          hvcurveto
          -163 vlineto
          -43 -25 -29 -47 -53 vvcurveto
          -80 64 -64 80 79 65 64 80 53 -29 47 -43 25 vhcurveto
          91 91 vlineto
          -43 25 47 -29 53 hhcurveto
          53 47 29 43 25 hvcurveto
          163 hlineto
          40 32 32 40 hvcurveto
          163 vlineto
          43 25 29 47 53 vvcurveto
          endchar
        </CharString>
        <CharString name="contract">
          21 -21 22 -21 279 152 0 152 hstemhm
          280 152 0 152 hintmask 01011000
          864 450 rmoveto
          29 callgsubr
          -121 121 122 122 7 7 0 11 -7 7 rlinecurve
          -128 128 -27 callsubr
          rlinecurve
          hintmask 01010100
          -122 -122 -37 callgsubr
          hintmask 01011000
          -3 callgsubr
          hintmask 10101000
          -106 callsubr
          -864 -36 rmoveto
          -5 2 -5 4 -3 vhcurveto
          121 -121 -122 -122 -40 callgsubr
          rlinecurve
          128 -128 4 callsubr
          rlinecurve
          hintmask 01101000
          122 122 121 -122 -75 callsubr
          396 -100 callgsubr
          hintmask 10101000
          -396 74 callgsubr
          30 callsubr
          endchar
        </CharString>
        <CharString name="creditcard">
          648 108 8 callsubr
          702 rmoveto
          -94 callgsubr
          -61 callsubr
          -54 864 vlineto
          -864 -162 rmoveto
          -324 -97 callsubr
          324 vlineto
          endchar
        </CharString>
        <CharString name="crop">
          48 callsubr
          hstemhm
          48 callsubr
          hintmask 11011000
          hintmask 11010100
          702 90 rmoveto
          hintmask 11011000
          -72 vlineto
          30 callsubr
          -108 -12 callsubr
          hintmask 10110100
          72 144 vlineto
          -684 612 rmoveto
          72 -144 -72 -12 callsubr
          108 vlineto
          75 callgsubr
          hintmask 11010100
          828 -396 rmoveto
          -144 378 54 callgsubr
          -378 144 54 callgsubr
          -108 hlineto
          hintmask 10111000
          -105 callsubr
          -666 -107 callgsubr
          666 22 callsubr
          -540 hmoveto
          hintmask 11011000
          252 252 -252 vlineto
          hintmask 10111000
          -252 hlineto
          endchar
        </CharString>
        <CharString name="crosshair">
          0 216 24 callsubr
          hstem
          0 216 24 callsubr
          cntrmask 11111100
          846 486 rmoveto
          -95 hlineto
          -22 136 -107 107 -136 22 rrcurveto
          95 -100 callgsubr
          -72 -106 callgsubr
          -95 vlineto
          -136 -22 -107 -107 -23 -136 rrcurveto
          -94 -21 callgsubr
          94 hlineto
          23 -136 107 -107 136 -23 rrcurveto
          -94 -20 callgsubr
          94 vlineto
          136 23 107 107 22 136 rrcurveto
          95 -100 callsubr
          72 -100 callgsubr
          -414 -270 rmoveto
          -35 callgsubr
        </CharString>
        <CharString name="cursor">
          -61 callgsubr
          hstem
          162 185 vstem
          701 335 rmoveto
          -54 callgsubr
          -504 504 rcurveline
          -85 callgsubr
          -720 vlineto
          -86 callsubr
          154 155 125 -258 4 -9 11 -4 9 5 rlinecurve
          81 41 9 4 4 11 -5 9 rlinecurve
          -126 257 rlineto
          225 64 callgsubr
        </CharString>
        <CharString name="d">
          47 callsubr
          27 80 252 78 hintmask 00111100
          27 240 rmoveto
          hintmask 10011100
          -114 -4 50 -140 155 hhcurveto
          57 56 32 46 27 hvcurveto
          hintmask 00111100
          -64 69 624 -78 -227 vlineto
          -32 42 -41 25 -66 2 rrcurveto
          -111 -78 -93 -133 -4 hvcurveto
          hintmask 01011100
          80 -13 rmoveto
          113 48 58 79 98 30 -99 -71 -105 -39 -67 -93 -3 vhcurveto
          -81 -42 72 102 hvcurveto
          endchar
        </CharString>
        <CharString name="dashboard">
          0 90 450 180 54 90 hstem
          0 90 414 162 108 90 -103 callgsubr
          -324 vmoveto
          72 -378 hlineto
          15 callgsubr
          362 rlineto
          234 -108 rmoveto
          27 callgsubr
          -156 -128 -125 -155 -4 vhcurveto
          185 4 152 149 186 hhcurveto
          189 153 -153 -189 hvcurveto
          64 callsubr
        </CharString>
        <CharString name="database">
          0 180 72 180 hstem
          -25 callsubr
          vstem
          756 252 rmoveto
          12 callgsubr
          -126 vlineto
          -60 145 -66 31 callgsubr
          145 66 60 vhcurveto
          378 vmoveto
          12 callgsubr
          11 callgsubr
          396 vmoveto
          60 -145 48 -179 -179 -145 -48 -60 vhcurveto
          11 callgsubr
          endchar
        </CharString>
        <CharString name="delete">
          53 758 hstem
          53 758 vstem
          806 211 rmoveto
          -221 221 221 221 rlineto
          -60 callgsubr
          -127 127 rlineto
          -48 callsubr
          -221 -221 -221 221 rlineto
          -48 callsubr
          -127 -127 rlineto
          -13 callsubr
          221 -221 -221 -221 rlineto
          -13 callsubr
          127 -127 rlineto
          -77 callsubr
          221 221 221 -221 rlineto
          -77 callsubr
          127 127 rlineto
          -60 callgsubr
          endchar
        </CharString>
        <CharString name="deletecalendar">
          0 162 -104 callsubr
          -216 -630 rmoveto
          -72 -72 -90 90 -90 -90 -72 72 90 90 -90 90 72 72 90 -90 90 90 72 -72 -90 -90 90 -90 rlineto
          endchar
        </CharString>
        <CharString name="desktop">
          0 270 -108 108 486 108 hstemhm
          0 108 216 216 -26 callsubr
          cntrmask 00011100
          hintmask 01111100
          9 callsubr
          -61 callsubr
          -594 -84 callsubr
          270 -52 hlineto
          hintmask 10111100
          -152 -76 -8 -4 -3 -8 1 -8 rlinecurve
          -8 2 8 -6 8 hhcurveto
          504 hlineto
          13 callsubr
          hintmask 01111100
          -19 callsubr
          2 vhcurveto
          -151 76 rlineto
          52 270 vlineto
          -93 callgsubr
          594 -88 callgsubr
          -54 -594 rmoveto
          -648 486 648 -486 hlineto
          endchar
        </CharString>
        <CharString name="directleft">
          -61 callgsubr
          hstem
          44 callsubr
          vstem
          673 860 rmoveto
          -504 -414 rlineto
          51 callgsubr
          -5 -5 vvcurveto
          -16 callgsubr
          828 vlineto
          38 callsubr
          rrcurveto
          endchar
        </CharString>
        <CharString name="directright">
          -61 callgsubr
          hstem
          44 callsubr
          vstem
          191 860 rmoveto
          -5 4 -7 1 -7 -3 rrcurveto
          -11 callgsubr
          -828 -22 callgsubr
          3 callsubr
          rlineto
          endchar
        </CharString>
        <CharString name="directup">
          46 callsubr
          191 rmoveto
          -51 callgsubr
          828 hlineto
          53 callsubr
          3 7 -1 7 -4 5 rrcurveto
          endchar
        </CharString>
        <CharString name="dislike">
          36 callsubr
          846 rmoveto
          -38 callgsubr
          504 vlineto
          720 -297 rmoveto
          33 -19 28 -28 13 vhcurveto
          7 12 4 15 16 vvcurveto
          39 -25 34 -36 12 vhcurveto
          5 10 2 11 11 63 callsubr
          -30 -46 -10 -12 -27 hvcurveto
          -185 -86 rlineto
          -378 vlineto
          216 -144 36 79 callgsubr
          vvcurveto
          -30 24 -24 30 20 22 15 24 17 vhcurveto
          20 29 11 37 39 vvcurveto
          68 -34 86 -1 1 vhcurveto
          -2 6 1 6 3 5 rrcurveto
          5 3 6 3 6 hhcurveto
          189 hlineto
          44 callgsubr
          31 -18 27 -26 14 hvcurveto
          26 13 18 28 31 vvcurveto
          endchar
        </CharString>
        <CharString name="dollarsign">
          0 -18 callgsubr
          110 103 110 163 18 callgsubr
          0 216 432 216 -103 callgsubr
          54 -698 rmoveto
          -58 -108 57 vlineto
          -92 12 -52 39 0 vvcurveto
          54 90 rlineto
          -18 36 54 -18 54 hhcurveto
          54 54 18 36 hvcurveto
          108 -324 -126 234 vvcurveto
          102 83 43 79 13 vhcurveto
          58 108 -57 vlineto
          92 -12 52 -39 0 vvcurveto
          -54 -90 rlineto
          18 -36 -54 18 -54 hhcurveto
          -54 -54 -18 -36 hvcurveto
          -108 324 126 -234 vvcurveto
          -102 -83 -43 -79 -13 vhcurveto
          endchar
        </CharString>
        <CharString name="down">
          -59 callgsubr
          14 callsubr
          vstem
          841 401 -56 callgsubr
          -234 414 21 callsubr
          -414 -234 vlineto
          -83 callgsubr
          396 -396 rcurveline
          -77 callsubr
          396 396 rlineto
          endchar
        </CharString>
        <CharString name="downleft">
          -53 callsubr
          756 vstem
          751 527 rmoveto
          -76 callsubr
          -198 198 rcurveline
          -62 callgsubr
          -311 -312 rcurveline
          -185 186 -74 callgsubr
          -594 -107 callgsubr
          594 hlineto
          -77 callgsubr
          -186 185 rcurveline
          312 311 rlineto
          endchar
        </CharString>
        <CharString name="download">
          -59 callsubr
          733 581 -56 callgsubr
          -198 234 21 callsubr
          -234 -198 vlineto
          -83 callgsubr
          360 -360 rcurveline
          -77 callsubr
          endchar
        </CharString>
        <CharString name="downloadcloud">
          506 250 hstem
          162 198 296 208 -64 callsubr
          209 hlineto
          -186 185 15 callsubr
          182 144 -182 16 callgsubr
          -186 -185 rcurveline
          182 hlineto
          6 callgsubr
          hvcurveto
          endchar
        </CharString>
        <CharString name="downloadhdd">
          0 55 callgsubr
          72 108 250 110 -92 callgsubr
          -234 -110 16 callgsubr
          -220 -219 rcurveline
          -220 219 15 callsubr
          110 -234 74 callsubr
          -3 hvcurveto
          -64 -22 callsubr
        </CharString>
        <CharString name="downright">
          30 callgsubr
          756 vstem
          113 527 rmoveto
          312 -311 -186 -185 -63 callgsubr
          594 -100 callsubr
          594 vlineto
          -90 callsubr
          -185 -186 rcurveline
          -311 312 -46 callsubr
          -198 -198 -45 callgsubr
          endchar
        </CharString>
        <CharString name="dropdown">
          46 callsubr
          673 rmoveto
          4 5 1 7 -3 7 rrcurveto
          6 -3 -6 4 -7 hhcurveto
          -828 hlineto
          -7 -6 -4 -6 -3 hvcurveto
          -3 -7 1 -7 4 -5 414 -504 rcurveline
          -5 3 6 -17 callgsubr
          5 5 2 5 4 hvcurveto
          414 504 rlineto
          endchar
        </CharString>
        <CharString name="droplet">
          27 callsubr
          432 hmoveto
          -5 callgsubr
          51 -14 49 -23 41 hvcurveto
          -235 426 rlineto
          5 -3 -7 4 -6 hhcurveto
          -7 -6 -4 -5 -3 hvcurveto
          -235 -426 rlineto
          -24 -41 -13 -49 -51 vvcurveto
          -159 129 -129 159 vhcurveto
          endchar
        </CharString>
        <CharString name="e">
          -55 -13 69 145 62 137 68 hstem
          33 81 259 80 vstem
          453 201 rmoveto
          156 4 -73 111 -138 hhcurveto
          -127 -86 -102 -152 hvcurveto
          -124 2 77 -103 132 hhcurveto
          105 81 57 98 17 hvcurveto
          -78 hlineto
          -29 -40 -57 -81 -75 -59 59 86 vhcurveto
          259 62 rmoveto
          -259 hlineto
          74 3 57 63 73 hhcurveto
          68 58 -54 -83 hvcurveto
          endchar
        </CharString>
        <CharString name="eject">
          0 144 -81 callsubr
          18 hmoveto
          828 22 callsubr
          -828 -99 callgsubr
          324 vmoveto
          828 hlineto
          53 callsubr
          1 3 1 2 3 vvcurveto
          4 -1 4 -3 3 vhcurveto
          -51 callgsubr
          endchar
        </CharString>
        <CharString name="ellipsis">
          -39 callsubr
          2 callgsubr
          hintmask 10100000
          324 432 rmoveto
          -48 callgsubr
          -324 hmoveto
          -48 callgsubr
          648 hmoveto
          -48 callgsubr
          endchar
        </CharString>
        <CharString name="ellipsischat">
          21 -21 540 270 hstem
          0 52 callsubr
          144 60 callgsubr
          810 rmoveto
          16 callsubr
          hvcurveto
          -58 callsubr
          70 callgsubr
          hvcurveto
          -216 -414 rmoveto
          -94 callsubr
          216 hmoveto
          -94 callsubr
          216 hmoveto
          -94 callsubr
          endchar
        </CharString>
        <CharString name="emptybattery">
          56 callgsubr
          108 540 17 callsubr
          -25 callsubr
          rmoveto
          -54 -68 callgsubr
          54 hlineto
          756 -93 callsubr
        </CharString>
        <CharString name="erase">
          -64 callgsubr
          162 324 rmoveto
          -8 callgsubr
          445 445 1 1 2 2 1 3 rlinecurve
          90 226 -54 callgsubr
          rlinecurve
          -42 callgsubr
          -2 -3 0 -1 -2 hvcurveto
          -226 -90 -3 -1 -2 -2 -1 -1 rlinecurve
          -591 -668 rmoveto
          85 -85 21 -21 35 0 21 21 rlinecurve
          92 92 -9 callsubr
          -92 -92 56 callsubr
          rlinecurve
          endchar
        </CharString>
        <CharString name="expand">
          0 152 -131 -21 712 152 hstemhm
          0 152 560 152 hintmask 01111000
          457 305 rmoveto
          4 3 2 5 4 vvcurveto
          29 callgsubr
          -127 127 -27 callsubr
          rlinecurve
          -153 -152 -37 callgsubr
          13 callsubr
          hintmask 10111000
          29 callgsubr
          -121 121 rlineto
          559 694 -66 callgsubr
          -396 hlineto
          -83 callgsubr
          122 -121 rcurveline
          -153 -153 -40 callgsubr
          rlinecurve
          128 -128 rlineto
          4 callgsubr
          4 5 2 3 3 hvcurveto
          153 153 121 -122 rlineto
          -80 callsubr
          endchar
        </CharString>
        <CharString name="f">
          -299 21 -21 385 69 115 66 hstem
          75 78 vstem
          227 630 rmoveto
          4 -14 -14 1 -12 hhcurveto
          -68 -44 -43 -54 hvcurveto
          -84 -63 -69 63 -385 78 385 74 69 -74 69 vlineto
          33 11 13 31 9 10 0 -2 13 vhcurveto
          endchar
        </CharString>
        <CharString name="facetime">
          44 callsubr
          hstem
          591 273 vstem
          486 702 rmoveto
          -432 -91 callsubr
          -432 -84 callsubr
          432 24 callgsubr
          378 -18 rmoveto
          -90 callsubr
          -226 -227 rcurveline
          -21 -21 0 -34 21 -21 226 -227 rcurveline
          -80 callsubr
          endchar
        </CharString>
        <CharString name="fastforward">
          -30 callgsubr
          864 432 rmoveto
          3 callsubr
          rlineto
          3 -3 -4 1 -4 hhcurveto
          -3 -2 -1 -1 -3 hvcurveto
          -11 callgsubr
          -228 vlineto
          -295 242 rlineto
          3 -3 -4 1 -4 hhcurveto
          -3 -2 -1 -1 -3 hvcurveto
          -11 callgsubr
          -828 -21 callsubr
          295 242 rcurveline
          -228 -22 callgsubr
          endchar
        </CharString>
        <CharString name="fax">
          0 108 32 callgsubr
          72 108 62 callgsubr
          864 54 rmoveto
          -32 callsubr
          -90 -180 -576 180 -90 -91 callsubr
          -432 -97 callsubr
          -108 108 rmoveto
          -30 -24 -24 -30 -83 callsubr
          vhcurveto
          -540 270 rmoveto
          432 414 54 callgsubr
          -396 -106 callgsubr
          -414 vlineto
          endchar
        </CharString>
        <CharString name="femaleuser">
          -24 callsubr
          vvcurveto
          108 54 72 0 hvcurveto
          0 -54 36 198 vvcurveto
          -47 callgsubr
          -198 -54 -36 0 vhcurveto
          0 54 -72 108 -43 callgsubr
        </CharString>
        <CharString name="file">
          30 callgsubr
          648 vstem
          756 576 rmoveto
          -42 callsubr
          -270 270 rlineto
          -42 callgsubr
          -306 -14 callsubr
          522 vlineto
          endchar
        </CharString>
        <CharString name="fill">
          43 callgsubr
          43 callgsubr
          hstem
          43 callgsubr
          43 callgsubr
          vstem
          846 49 callgsubr
          -234 32 callgsubr
          324 -324 -144 -108 234 -51 callsubr
          69 callsubr
          -324 -864 rmoveto
          -504 20 callsubr
          504 22 callgsubr
          endchar
        </CharString>
        <CharString name="filter">
          -59 callgsubr
          -39 callsubr
          vstem
          855 780 rmoveto
          11 16 1 22 -9 17 rrcurveto
          18 -10 -18 11 -20 hhcurveto
          -756 hlineto
          -20 -18 -11 -18 -10 hvcurveto
          -9 -17 1 -22 11 -16 315 -465 rcurveline
          -297 -102 callgsubr
          297 vlineto
          315 465 rlineto
          endchar
        </CharString>
        <CharString name="flag">
          30 callgsubr
          17 callsubr
          756 798 rmoveto
          6 -3 6 -5 3 vhcurveto
          -5 4 -7 0 -5 -2 rrcurveto
          -11 -24 -38 -12 -48 hhcurveto
          -59 -66 18 18 -64 hvcurveto
          18 -64 -67 18 -58 hhcurveto
          -62 -46 -21 -10 -18 hvcurveto
          -5 -3 -4 -6 -6 vvcurveto
          -800 -20 callgsubr
          413 vlineto
          9 9 1 9 hhcurveto
          58 67 -18 -18 64 hvcurveto
          -18 64 66 -18 59 hhcurveto
          61 47 21 9 17 hvcurveto
          6 4 4 6 6 vvcurveto
          392 vlineto
          endchar
        </CharString>
        <CharString name="flask">
          0 144 hstem
          288 288 vstem
          847 143 rmoveto
          -271 399 rlineto
          304 -100 callgsubr
          -252 -106 callgsubr
          -304 vlineto
          -273 -402 -18 -27 -2 -36 15 -29 rlinecurve
          -30 16 31 -18 33 hhcurveto
          684 74 callgsubr
          50 40 40 50 20 -6 18 -11 15 vhcurveto
          -523 1 rmoveto
          -94 callsubr
          162 180 rmoveto
          -90 callgsubr
          endchar
        </CharString>
        <CharString name="folder">
          -25 callsubr
          -81 callsubr
          162 vmoveto
          -17 callsubr
          51 callsubr
          -312 -91 callsubr
          -540 vlineto
          endchar
        </CharString>
        <CharString name="font">
          21 -21 -2 callgsubr
          -81 callsubr
          863 24 rmoveto
          -282 828 rlineto
          7 -3 -6 5 -8 hhcurveto
          -264 hlineto
          -8 -7 -5 -7 -2 hvcurveto
          -282 -828 -2 -6 1 -6 3 -5 rlinecurve
          -4 4 5 -3 6 hhcurveto
          176 hlineto
          8 7 5 7 2 hvcurveto
          48 150 rlineto
          342 hlineto
          48 -150 rlineto
          -7 2 7 -5 8 hhcurveto
          -2 callsubr
          6 5 3 4 4 hvcurveto
          3 5 1 6 -2 6 rrcurveto
          -553 300 rmoveto
          120 375 119 -375 rlineto
          -239 hlineto
          endchar
        </CharString>
        <CharString name="fork">
          52 callsubr
          -71 callsubr
          cntrmask 11100000
          697 823 rmoveto
          -85 callgsubr
          -90 -172 vlineto
          -62 -58 -29 -49 -37 hvcurveto
          -87 -116 rlineto
          57 callgsubr
          -189 -99 callgsubr
          189 41 callgsubr
          87 -116 rlineto
          -49 37 58 -29 62 hhcurveto
          172 -52 callgsubr
          -74 callgsubr
          -90 -171 42 callsubr
          -92 122 92 122 42 callgsubr
          171 -52 callgsubr
          rlineto
          endchar
        </CharString>
        <CharString name="g">
          -21 -199 71 115 68 334 77 hstemhm
          42 81 -47 76 230 76 hintmask 11110100
          458 20 rmoveto
          437 -76 -55 vlineto
          37 -23 -49 27 -56 hhcurveto
          -123 -89 -92 -159 hvcurveto
          -146 3 105 -82 93 hhcurveto
          54 46 12 42 39 hvcurveto
          -27 vlineto
          -99 -53 -43 -81 vhcurveto
          hintmask 11101100
          -47 -49 24 48 hvcurveto
          -76 hlineto
          -125 2 118 -18 57 hhcurveto
          hintmask 11110100
          125 80 67 152 hvcurveto
          -76 206 rmoveto
          -110 -2 -54 -61 -72 hhcurveto
          -64 -67 54 124 106 67 50 61 82 49 -62 -101 hvcurveto
          endchar
        </CharString>
        <CharString name="globe">
          0 90 342 72 270 90 hstem
          0 180 468 216 -103 callgsubr
          54 -774 rmoveto
          -10 -8 79 callsubr
          129 vlineto
          -52 12 -38 47 55 vvcurveto
          9 1 9 2 9 vhcurveto
          -3 hlineto
          -108 -90 90 108 121 100 72 152 5 hvcurveto
          19 19 -2 -3 19 hvcurveto
          9 -1 6 -8 -9 vvcurveto
          -1 -72 -23 -50 -10 -19 rrcurveto
          17 -17 17 -18 -35 vvcurveto
          -20 -16 -16 -20 vhcurveto
          -26 -1 36 -36 hhcurveto
          -25 -20 -20 -25 -36 36 -27 54 hvcurveto
          72 hlineto
          70 56 -56 -70 -126 -108 -90 -54 hvcurveto
          endchar
        </CharString>
        <CharString name="grid">
          35 callgsubr
          -11 callsubr
          108 216 cntrmask 11111100
          846 vmoveto
          -103 callsubr
          -648 -324 rmoveto
          -103 callsubr
          -648 -324 rmoveto
          -103 callsubr
          endchar
        </CharString>
        <CharString name="h">
          -55 21 -21 398 69 34 callgsubr
          131 -82 34 -72 vhcurveto
          -47 -2 -60 -20 -34 -52 rrcurveto
          231 -78 -624 78 247 vlineto
          107 62 44 66 65 24 -38 -63 vhcurveto
          -297 vlineto
          endchar
        </CharString>
        <CharString name="halfheart">
          -107 52 755 hstem
          0 432 60 callgsubr
          52 rmoveto
          631 vlineto
          -50 callsubr
          endchar
        </CharString>
        <CharString name="halfstar">
          -107 -59 callgsubr
          294 138 60 callgsubr
          159 rmoveto
          705 vlineto
          -69 callgsubr
          endchar
        </CharString>
        <CharString name="hdd">
          0 55 callgsubr
          -92 callgsubr
          -612 74 callsubr
          -4 hvcurveto
          -63 -22 callsubr
        </CharString>
        <CharString name="heart">
          52 756 -81 callsubr
          744 357 rmoveto
          143 143 9 148 -91 91 -92 92 -148 0 -91 -92 -17 -17 -14 -19 -11 -20 -50 callsubr
          -81 callgsubr
          299 300 rlineto
          endchar
        </CharString>
        <CharString name="help">
          0 32 callgsubr
          90 396 126 hstem
          630 234 -50 callgsubr
          -239 -193 -194 -238 -72 callsubr
          238 194 193 239 238 -194 194 -238 hvcurveto
          -756 vmoveto
          -94 callsubr
          54 252 rmoveto
          -18 -108 36 vlineto
          32 callgsubr
          0 72 vvcurveto
          36 -36 36 -54 -54 -54 -54 0 vhcurveto
          -72 72 rlineto
          0 72 90 108 109 89 79 callgsubr
          vhcurveto
          76 callgsubr
          0 -54 vvcurveto
          endchar
        </CharString>
        <CharString name="highbattery">
          10 callgsubr
          648 17 callsubr
          540 648 rmoveto
          -486 -68 callgsubr
          486 hlineto
          324 -93 callsubr
        </CharString>
        <CharString name="highvolume">
          22 -21 269 324 hstem
          558 108 90 17 callsubr
          662 6 rmoveto
          4 callsubr
          236 235 0 382 -236 235 -37 callsubr
          193 -193 0 -314 -24 callgsubr
          -45 callsubr
          -8 rrcurveto
          -64 90 -82 callgsubr
          -24 callgsubr
          rcurveline
          -82 callsubr
          endchar
        </CharString>
        <CharString name="home">
          30 callgsubr
          216 216 216 vstem
          863 425 rmoveto
          2 7 -1 7 -5 6 -414 414 rcurveline
          -62 callgsubr
          -414 -414 rcurveline
          -5 -6 -1 -7 2 -7 rrcurveto
          -63 callsubr
          90 -396 21 callgsubr
          306 216 -306 -102 callgsubr
          396 90 vlineto
          -55 callsubr
          endchar
        </CharString>
        <CharString name="hyphen">
          56 callgsubr
          864 vstem
          846 324 rmoveto
          36 callgsubr
          -828 -106 callgsubr
          -180 -79 callsubr
          endchar
        </CharString>
        <CharString name="i">
          -345 21 -21 536 86 hstem
          56 78 vstem
          134 536 rmoveto
          86 -78 -86 vlineto
          78 -536 rmoveto
          454 -78 -454 vlineto
          endchar
        </CharString>
        <CharString name="inbox">
          0 216 540 18 callgsubr
          0 109 646 109 vstem
          863 332 rmoveto
          -72 486 rlineto
          26 -4 -22 20 -27 hhcurveto
          -612 74 callsubr
          -3 hvcurveto
          -72 -486 rlineto
          -1 -3 0 -2 -3 vvcurveto
          -270 -97 callsubr
          270 vlineto
          3 0 2 -1 3 vhcurveto
          -690 424 rmoveto
          518 hlineto
          64 -432 rlineto
          -176 hlineto
          -7 -7 -4 -7 -3 hvcurveto
          -35 -86 rlineto
          55 callsubr
          -156 hlineto
          -7 -7 4 7 -3 hvcurveto
          -35 86 rlineto
          -40 callsubr
          -176 hlineto
          64 432 rlineto
          endchar
        </CharString>
        <CharString name="info">
          0 162 306 90 144 162 hstem
          0 864 -103 callgsubr
          54 -702 rmoveto
          -108 306 108 -306 hlineto
          -54 396 rmoveto
          -94 callsubr
          endchar
        </CharString>
        <CharString name="j">
          -310 -181 65 652 88 hstem
          93 78 vstem
          171 -78 rmoveto
          532 -78 -515 vlineto
          -41 -11 -14 -29 -10 -11 1 3 -14 vhcurveto
          -66 vlineto
          -3 14 13 0 12 hhcurveto
          76 38 46 57 hvcurveto
          614 vmoveto
          88 -78 -88 vlineto
          endchar
        </CharString>
        <CharString name="k">
          -105 -59 callgsubr
          54 78 vstem
          434 hmoveto
          -191 280 181 174 rlineto
          -98 hlineto
          -194 -193 rlineto
          363 -78 -624 78 168 vlineto
          55 54 150 -222 rlineto
          endchar
        </CharString>
        <CharString name="key">
          21 -21 324 243 162 135 hstem
          0 -2 callgsubr
          243 162 135 vstem
          144 -10 callgsubr
          90 90 -51 callsubr
          90 100 vlineto
          5 5 2 3 3 hvcurveto
          119 119 rlineto
          -11 29 31 -5 32 hhcurveto
          149 121 121 149 28 callgsubr
          -29 callgsubr
          -32 5 -31 11 -29 hvcurveto
          -335 -335 rlineto
          -3 -3 -2 -5 -5 vvcurveto
          -136 -107 callgsubr
          630 729 1 callsubr
          endchar
        </CharString>
        <CharString name="l">
          -345 -59 callgsubr
          56 79 vstem
          135 hmoveto
          624 -79 65 callgsubr
        </CharString>
        <CharString name="laptop">
          54 216 50 callgsubr
          54 108 540 17 callsubr
          861 166 rmoveto
          -51 77 rlineto
          513 -88 callgsubr
          -648 -91 callsubr
          -513 vlineto
          -51 -77 rlineto
          -2 -2 -1 -4 -4 vvcurveto
          -84 -91 callgsubr
          84 vlineto
          4 -1 4 -2 2 vhcurveto
          -699 536 rmoveto
          540 -432 -540 432 hlineto
          endchar
        </CharString>
        <CharString name="layers">
          612 144 hstem
          0 144 vstem
          648 702 rmoveto
          -94 callgsubr
          25 callgsubr
          -378 -84 callsubr
          90 234 hlineto
          60 48 48 60 vhcurveto
          396 hlineto
          216 -126 rmoveto
          -94 callgsubr
          -558 hlineto
          -20 -16 -16 -20 hvcurveto
          -342 -85 callsubr
          endchar
        </CharString>
        <CharString name="layout">
          21 -21 648 216 hstem
          0 252 vstem
          252 576 rmoveto
          -234 -106 callgsubr
          -540 -107 callgsubr
          216 -4 callgsubr
          540 -66 callgsubr
          -522 -558 hlineto
          -107 callsubr
          504 -100 callsubr
          828 vmoveto
          -88 callsubr
          endchar
        </CharString>
        <CharString name="left">
          14 callsubr
          -81 callsubr
          401 23 rmoveto
          -41 callgsubr
          rrcurveto
          -66 callsubr
          234 414 -51 callsubr
          288 -100 callgsubr
          -414 234 hlineto
          -90 callsubr
          -396 -396 rcurveline
          -13 callsubr
          396 -396 rlineto
          endchar
        </CharString>
        <CharString name="lightbulb">
          0 18 callgsubr
          -39 callsubr
          vstem
          -18 callsubr
          rmoveto
          -198 180 -54 -144 vvcurveto
          216 hlineto
          77 callgsubr
          54 198 vvcurveto
          27 callgsubr
          -30 callsubr
          vhcurveto
          396 -468 rmoveto
          -216 -54 hlineto
          -95 callsubr
          108 -97 callgsubr
          endchar
        </CharString>
        <CharString name="like">
          36 callsubr
          18 rmoveto
          504 vlineto
          -38 callgsubr
          720 297 rmoveto
          31 -18 27 -26 14 vhcurveto
          26 13 18 28 31 63 callsubr
          -6 -6 3 5 -3 hvcurveto
          -3 5 -1 6 2 6 rrcurveto
          1 34 87 68 39 -11 37 -20 28 hvcurveto
          25 -17 -22 15 -20 hhcurveto
          -89 callsubr
          -108 -36 -72 -216 -144 hvcurveto
          -378 vlineto
          185 -86 rlineto
          -12 27 46 -10 30 hhcurveto
          189 hlineto
          44 callgsubr
          11 -2 11 -5 10 hvcurveto
          36 12 25 34 39 vvcurveto
          16 -4 14 -7 13 vhcurveto
          28 13 19 28 33 vvcurveto
          endchar
        </CharString>
        <CharString name="link">
          8 callgsubr
          hstem
          0 108 154 107 126 107 154 17 callsubr
          795 464 rmoveto
          20 callgsubr
          -134 -134 26 callsubr
          21 -21 34 0 21 21 22 21 0 34 -22 21 -49 50 0 79 49 50 135 134 32 callsubr
          -64 -65 rcurveline
          16 -43 6 -45 -4 -46 rrcurveto
          -139 -139 rmoveto
          91 91 0 148 -91 92 -21 21 -35 0 -21 -21 56 callsubr
          50 -49 0 -80 -50 -49 -134 -134 37 callgsubr
          64 64 rcurveline
          -16 43 -6 46 4 46 -123 -123 17 callgsubr
          rrcurveto
          endchar
        </CharString>
        <CharString name="list">
          54 144 58 callsubr
          58 callsubr
          hstem
          0 144 cntrmask 11100000
          77 callgsubr
          rmoveto
          -73 callgsubr
          414 vmoveto
          -73 callgsubr
          414 vmoveto
          -73 callgsubr
          720 -504 rmoveto
          -73 callsubr
          414 vmoveto
          -73 callsubr
          414 vmoveto
          -73 callsubr
          endchar
        </CharString>
        <CharString name="loading">
          21 -21 60 callsubr
          hstemhm
          60 callsubr
          hintmask 10100100
          504 792 rmoveto
          -8 callsubr
          -468 vmoveto
          -8 callsubr
          -234 360 rmoveto
          -23 callgsubr
          594 hmoveto
          -23 callgsubr
          hintmask 01011010
          -547 115 rmoveto
          29 28 46 callgsubr
          -29 -29 -28 -28 0 -45 28 -28 90 -89 rcurveline
          28 -29 45 0 28 29 rrcurveto
          420 -421 rmoveto
          29 29 46 callgsubr
          -28 -29 -29 -28 0 -45 29 -28 89 -90 rcurveline
          28 -28 45 0 28 28 rrcurveto
          510 vmoveto
          39 callsubr
          -89 -89 rcurveline
          -29 -28 0 -45 29 -28 28 -29 45 0 28 29 rrcurveto
          -331 -331 rmoveto
          39 callsubr
          -90 -89 rcurveline
          -28 -28 0 -45 28 -29 29 -28 45 0 28 28 rrcurveto
          endchar
        </CharString>
        <CharString name="location">
          21 -21 684 180 hstem
          77 callgsubr
          216 180 -50 callgsubr
          -30 callsubr
          -51 13 -49 24 -41 hvcurveto
          235 -426 rlineto
          -5 3 6 -4 7 hhcurveto
          6 7 4 5 3 hvcurveto
          235 426 rlineto
          23 41 14 49 51 vvcurveto
          27 callgsubr
          vhcurveto
          -396 vmoveto
          -60 -48 48 60 66 callgsubr
          -60 -48 -48 -60 hvcurveto
          endchar
        </CharString>
        <CharString name="lock">
          -46 callgsubr
          -11 callsubr
          17 callsubr
          702 486 rmoveto
          -54 162 hlineto
          -47 callgsubr
          vhcurveto
          -162 -54 -44 callgsubr
          -378 162 rmoveto
          61 callsubr
          -162 -216 162 vlineto
          endchar
        </CharString>
        <CharString name="logout">
          0 208 447 209 hstem
          -18 callgsubr
          vstem
          756 -29 callsubr
          -612 -106 callgsubr
          -342 162 135 vlineto
          7 4 7 7 2 vhcurveto
          7 3 7 -1 6 -5 219 -220 rcurveline
          -219 -220 -6 -5 -7 -2 -7 3 rlinecurve
          -7 3 -4 7 7 vvcurveto
          135 -162 65 callsubr
          612 -100 callsubr
          828 vlineto
          endchar
        </CharString>
        <CharString name="lowbattery">
          56 callgsubr
          216 432 17 callsubr
          216 648 rmoveto
          -162 -68 callgsubr
          162 hlineto
          648 -93 callsubr
        </CharString>
        <CharString name="lowvolume">
          71 callgsubr
          666 108 hintmask 10100000
          655 146 -82 callgsubr
          rrcurveto
          hintmask 01100000
          -24 callgsubr
          rlineto
          -82 callsubr
          endchar
        </CharString>
        <CharString name="m">
          183 21 -21 398 68 hstem
          55 78 190 78 190 78 cntrmask 00111000
          669 hmoveto
          313 vlineto
          126 -89 27 -53 -69 -47 -37 -36 -23 vhcurveto
          40 -21 -32 33 -69 hhcurveto
          -54 -52 -25 -51 -33 hvcurveto
          64 -72 -454 78 247 vlineto
          114 2 59 37 56 hhcurveto
          54 19 -43 -42 hvcurveto
          -313 78 276 vlineto
          76 3 43 46 60 hhcurveto
          56 28 -36 -69 hvcurveto
          -293 vlineto
          endchar
        </CharString>
        <CharString name="mail">
          108 173 421 54 -81 callsubr
          432 378 rmoveto
          432 324 rlineto
          -94 callgsubr
          -61 callsubr
          432 -421 rmoveto
          -432 324 rlineto
          -443 -97 callsubr
          443 vlineto
          endchar
        </CharString>
        <CharString name="map">
          36 756 hstem
          0 69 705 90 vstem
          856 769 rmoveto
          -4 4 -6 1 -6 -2 -264 -88 rcurveline
          -282 107 -4 1 -4 0 -4 -1 rlinecurve
          -270 -91 rlineto
          -7 -3 -5 -7 -7 vvcurveto
          -131 vlineto
          -3 callgsubr
          38 -62 -15 -9 -13 -8 -10 -8 rlinecurve
          -394 vlineto
          -6 3 -5 4 -4 vhcurveto
          5 -3 6 -1 5 2 264 88 rcurveline
          282 -105 rlineto
          2 callsubr
          1 hvcurveto
          270 89 rlineto
          8 2 5 7 8 vvcurveto
          612 vlineto
          6 -3 5 -5 3 vhcurveto
          -759 -248 rmoveto
          -28 66 36 16 37 11 38 7 rlinecurve
          13 -71 -33 -6 -32 -10 -31 -13 rlinecurve
          260 27 rmoveto
          6 -31 -33 3 -34 hhcurveto
          -2 72 40 1 39 -4 37 -8 rlinecurve
          -16 -70 rlineto
          148 -68 rmoveto
          -26 20 -29 16 -30 13 27 66 rcurveline
          36 -14 35 -20 31 -24 -44 -57 rcurveline
          49 -44 rmoveto
          53 49 47 -50 21 -45 1 -2 rlinecurve
          -32 -15 -33 -16 rlineto
          1 -18 36 -39 42 vhcurveto
          148 -257 rmoveto
          -94 callsubr
          endchar
        </CharString>
        <CharString name="mediumbattery">
          10 callgsubr
          648 17 callsubr
          378 648 rmoveto
          -324 -68 callgsubr
          324 hlineto
          486 -93 callsubr
        </CharString>
        <CharString name="merge">
          52 callsubr
          hstemhm
          -61 callgsubr
          -198 198 cntrmask 11100000
          hintmask 11110000
          hintmask 11101000
          859 419 -92 callsubr
          -135 42 callsubr
          -87 116 rlineto
          49 -37 -58 29 -62 hhcurveto
          -226 -99 callgsubr
          225 41 callgsubr
          87 -116 2 -2 1 -2 2 -2 rlinecurve
          -2 -2 -1 -2 -2 -2 -87 -116 rcurveline
          57 callgsubr
          -225 -99 callgsubr
          226 hlineto
          62 58 29 49 37 hvcurveto
          87 116 42 callgsubr
          135 -36 callsubr
        </CharString>
        <CharString name="mic">
          0 270 -249 -21 hstemhm
          90 108 72 324 -216 108 180 108 hintmask 01101100
          hintmask 10110100
          270 504 rmoveto
          -90 72 -72 90 89 73 72 90 vhcurveto
          198 vlineto
          26 callgsubr
          vhcurveto
          504 -198 rmoveto
          68 callsubr
          -129 -105 -105 -129 -129 -105 105 129 68 callsubr
          vhcurveto
          hintmask 01101100
          -170 125 -142 163 -26 vhcurveto
          -148 -20 callgsubr
          148 vlineto
          hintmask 10110100
          163 26 125 142 170 vvcurveto
          endchar
        </CharString>
        <CharString name="move">
          21 -21 31 callsubr
          162 198 hstem
          0 198 58 callsubr
          162 198 cntrmask 00011100
          859 419 -92 callsubr
          -162 -65 callgsubr
          -162 -65 callsubr
          -8 callgsubr
          rcurveline
          -80 callsubr
          90 162 -49 callgsubr
          -2 callgsubr
          -20 callsubr
          -90 -2 callgsubr
          -36 callsubr
        </CharString>
        <CharString name="music">
          -59 callgsubr
          288 90 396 90 vstem
          864 820 rmoveto
          30 -24 19 -29 -6 vhcurveto
          -470 -103 rlineto
          -29 -7 -24 -29 -30 vvcurveto
          -388 -36 callgsubr
          324 vlineto
          396 90 rlineto
          -216 -36 callgsubr
          496 vlineto
          endchar
        </CharString>
        <CharString name="n">
          -55 21 -21 398 68 34 callgsubr
          116 -66 48 -88 -77 -54 -55 -23 -14 vhcurveto
          66 -74 -454 78 259 vlineto
          88 57 51 71 70 19 -49 -65 vhcurveto
          -284 vlineto
          endchar
        </CharString>
        <CharString name="navigate">
          -64 callgsubr
          450 hmoveto
          53 callsubr
          396 828 3 7 -1 8 -5 6 rlinecurve
          -6 5 -8 1 -7 -3 -828 -396 rcurveline
          -7 -3 -4 -9 1 -8 rrcurveto
          -8 2 8 -6 8 hhcurveto
          414 -414 hlineto
          -8 6 -8 8 -2 vhcurveto
          73 callgsubr
          endchar
        </CharString>
        <CharString name="navigatedown">
          -18 callsubr
          8 callsubr
          576 rmoveto
          -42 callsubr
          59 callgsubr
          -46 callsubr
          -275 -276 -275 276 -46 callsubr
          -7 callgsubr
          414 -414 -28 callgsubr
          rlinecurve
          414 414 rlineto
          3 4 2 4 5 vvcurveto
          endchar
        </CharString>
        <CharString name="navigateleft">
          27 callsubr
          576 hmoveto
          -81 callgsubr
          76 callsubr
          -76 callsubr
          rlinecurve
          -276 275 276 275 -76 callsubr
          rlinecurve
          59 callgsubr
          -46 callsubr
          -414 -414 -45 callgsubr
          414 -414 41 callsubr
          endchar
        </CharString>
        <CharString name="navigateright">
          27 callsubr
          288 -33 callgsubr
          -27 callgsubr
          -7 callgsubr
          275 -275 -275 -275 -45 callgsubr
          43 callsubr
          -28 callgsubr
          rlinecurve
          414 414 -76 callsubr
          rlinecurve
          -414 414 rlineto
          -42 callgsubr
          endchar
        </CharString>
        <CharString name="navigateup">
          -18 callsubr
          -81 callsubr
          288 vmoveto
          -5 45 callgsubr
          vhcurveto
          43 callsubr
          -28 callgsubr
          rlinecurve
          275 275 275 -275 -28 callgsubr
          rlinecurve
          76 callsubr
          -76 callsubr
          rlinecurve
          -414 414 -46 callsubr
          -414 -414 rlineto
          5 callgsubr
          endchar
        </CharString>
        <CharString name="newspaper">
          54 90 504 162 hstem
          0 90 72 270 43 callgsubr
          vstem
          846 810 rmoveto
          -666 -106 callgsubr
          -612 vlineto
          -20 -16 -16 -20 -20 -16 16 20 vhcurveto
          522 -72 29 callsubr
          -522 vlineto
          -60 48 -48 60 vhcurveto
          648 hlineto
          60 48 48 60 hvcurveto
          630 -100 callgsubr
          -90 -324 40 callgsubr
        </CharString>
        <CharString name="notebook">
          0 216 -108 108 24 callsubr
          hstemhm
          -2 callgsubr
          324 162 hintmask 10111100
          756 -33 callgsubr
          25 callgsubr
          -54 -90 29 callsubr
          -72 -107 callgsubr
          90 -162 -90 -21 callgsubr
          90 -162 -90 -106 callgsubr
          hintmask 01111100
          -72 -107 callgsubr
          90 hlineto
          hintmask 10111100
          -54 -85 callsubr
          756 -88 callgsubr
          -108 -378 40 callgsubr
        </CharString>
        <CharString name="notifications">
          0 90 72 187 hstemhm
          -61 callgsubr
          -522 180 hintmask 10100000
          hintmask 11010000
          11 callsubr
          521 83 rmoveto
          -54 callgsubr
          -157 156 rcurveline
          245 vlineto
          28 callgsubr
          -29 callgsubr
          vhcurveto
          -245 vlineto
          -157 -156 -63 callgsubr
          828 64 callgsubr
        </CharString>
        <CharString name="notificationsdisabled">
          0 90 hstemhm
          -61 callgsubr
          -522 180 hintmask 11000000
          hintmask 10100000
          11 callsubr
          -180 432 rmoveto
          -173 vlineto
          -157 -156 -63 callgsubr
          504 hlineto
          327 -147 rmoveto
          20 20 0 33 -20 21 -74 73 rcurveline
          71 hlineto
          -77 callgsubr
          -157 156 rcurveline
          245 vlineto
          28 callgsubr
          -97 -85 -51 -78 -48 vhcurveto
          -113 114 -21 20 -33 0 -20 -20 rlinecurve
          -20 -21 0 -33 20 -20 760 -760 33 callsubr
          endchar
        </CharString>
        <CharString name="o">
          -55 -13 67 345 68 hstem
          31 80 265 80 vstem
          456 227 rmoveto
          129 -78 111 -135 -135 -77 -111 -129 -126 77 -114 135 vhcurveto
          135 3 78 112 125 vvcurveto
          -80 hmoveto
          -88 -3 -34 -85 -96 hhcurveto
          -95 -37 85 88 72 37 100 95 hvcurveto
          96 -2 38 -98 -1 -72 rrcurveto
          endchar
        </CharString>
        <CharString name="openbook">
          22 -21 -81 callsubr
          378 hmoveto
          -26 callgsubr
          6 3 5 7 7 vvcurveto
          666 vlineto
          -42 callsubr
          -77 77 -97 41 -68 21 rrcurveto
          23 -73 -54 5 -3 hhcurveto
          38 callgsubr
          -4 -3 hvcurveto
          -4 -3 -2 -5 -5 vvcurveto
          -666 vlineto
          -9 7 -8 9 -1 vhcurveto
          2 209 -19 -138 138 hvcurveto
          -75 callgsubr
          108 hmoveto
          -81 callgsubr
          138 137 209 19 2 hhcurveto
          10 1 7 8 9 vvcurveto
          666 vlineto
          29 callgsubr
          3 -4 58 callgsubr
          -2 -54 -5 -23 -73 hvcurveto
          -123 -38 -76 -59 -43 -42 rrcurveto
          5 callgsubr
          -666 vlineto
          -76 callgsubr
          endchar
        </CharString>
        <CharString name="p">
          -55 -12 68 345 67 hstem
          49 79 252 80 vstem
          460 214 rmoveto
          114 4 -50 140 -155 hhcurveto
          -57 -56 -32 -46 -27 hvcurveto
          64 -70 -634 79 237 vlineto
          32 -42 41 -25 65 -2 rrcurveto
          112 78 93 133 4 hvcurveto
          -80 13 rmoveto
          -113 -48 -58 -79 -98 -30 99 71 105 39 67 93 3 vhcurveto
          81 42 -72 -102 hvcurveto
          endchar
        </CharString>
        <CharString name="pause">
          -53 callsubr
          -39 callsubr
          324 vstem
          306 -44 callsubr
          828 -44 callsubr
          endchar
        </CharString>
        <CharString name="phone">
          12 callsubr
          761 -57 callsubr
          -59 -95 -80 -81 -95 -59 -115 116 rcurveline
          -6 5 78 callsubr
          -4 -236 -118 rcurveline
          -8 -4 -4 -10 3 -9 85 -214 rcurveline
          45 callgsubr
          5 -2 rrcurveto
          2 callsubr
          3 hvcurveto
          392 49 312 311 49 393 49 callsubr
        </CharString>
        <CharString name="phonedisabled">
          -64 callgsubr
          487 143 rmoveto
          -220 220 -6 5 78 callsubr
          -4 rlinecurve
          -236 -118 -8 -4 -4 -10 3 -9 rlinecurve
          85 -214 45 callgsubr
          5 -2 rlinecurve
          2 callsubr
          3 hvcurveto
          138 17 129 50 110 75 rrcurveto
          377 618 -57 callsubr
          -27 -44 -31 -40 -36 -37 -380 381 rcurveline
          -21 20 -33 0 -20 -20 -20 -21 0 -33 20 -20 653 -653 33 callsubr
          20 20 0 33 -20 21 -170 169 rcurveline
          128 132 86 172 24 192 49 callsubr
        </CharString>
        <CharString name="picture">
          108 7 callgsubr
          756 rmoveto
          -61 callsubr
          -540 vlineto
          -30 24 -24 30 vhcurveto
          756 -32 callgsubr
          -621 -108 1 callsubr
          567 -432 rmoveto
          -648 hlineto
          -18 callgsubr
          126 -90 198 252 216 -324 rlineto
          endchar
        </CharString>
        <CharString name="piechart">
          -64 callgsubr
          756 378 rmoveto
          -378 378 hlineto
          -209 -169 -169 -209 10 callsubr
          hvcurveto
          108 90 63 callgsubr
          30 callsubr
          -396 396 72 callgsubr
        </CharString>
        <CharString name="pin">
          360 234 162 18 callgsubr
          180 234 162 108 60 callgsubr
          288 rmoveto
          18 18 1 3 18 hvcurveto
          -256 vlineto
          0 0 -36 -54 -54 0 36 0 vhcurveto
          256 vlineto
          -3 18 18 -1 18 hhcurveto
          576 vmoveto
          67 callsubr
          -139 113 -113 52 callgsubr
          139 -113 113 -139 hvcurveto
          63 -270 rmoveto
          -45 -36 36 45 44 callgsubr
          -4 callsubr
          hvcurveto
          endchar
        </CharString>
        <CharString name="play">
          -64 callgsubr
          18 hmoveto
          3 2 1 1 3 hvcurveto
          828 414 rlineto
          -12 callgsubr
          -41 callsubr
          -828 414 -6 3 -6 0 -6 -4 rlinecurve
          -5 -3 -3 -6 -6 vvcurveto
          -828 vlineto
          -6 3 -6 5 -3 vhcurveto
          -2 3 4 -1 3 hhcurveto
          endchar
        </CharString>
        <CharString name="plus">
          21 -21 10 callgsubr
          -39 callsubr
          vstem
          522 -10 callgsubr
          306 306 vlineto
          36 callgsubr
          -306 306 54 callgsubr
          -180 -106 callgsubr
          -306 -306 29 callsubr
          -180 -107 callgsubr
          306 -306 hlineto
          -107 callsubr
          -2 callsubr
          endchar
        </CharString>
        <CharString name="print">
          504 144 -9 callgsubr
          62 callgsubr
          9 callsubr
          -61 callsubr
          -432 -84 callsubr
          90 180 576 -180 90 24 callgsubr
          -108 -216 rmoveto
          -90 callgsubr
          -486 -216 rmoveto
          432 -414 hlineto
          30 callsubr
          -396 -12 callsubr
          414 vlineto
          endchar
        </CharString>
        <CharString name="q">
          -55 -12 68 345 67 hstem
          19 80 253 78 vstem
          19 214 rmoveto
          -142 3 80 -84 111 hhcurveto
          65 2 41 25 33 42 rrcurveto
          -237 78 634 -70 vlineto
          -7 -56 rlineto
          46 -27 -49 24 -57 hhcurveto
          -155 -46 -141 -113 hvcurveto
          80 13 rmoveto
          102 42 72 81 vhcurveto
          93 -3 39 -67 -105 vvcurveto
          -71 -30 -99 -97 -79 -49 58 113 vhcurveto
          endchar
        </CharString>
        <CharString name="quote">
          54 324 hstem
          0 216 270 216 vstem
          702 378 rmoveto
          -70 callgsubr
          -594 hmoveto
          -70 callgsubr
          endchar
        </CharString>
        <CharString name="r">
          -251 21 -21 385 79 hstem
          33 78 vstem
          257 385 rmoveto
          79 vlineto
          -87 -41 -41 -46 -21 hvcurveto
          77 -75 -454 78 272 vlineto
          72 61 41 85 vhcurveto
          endchar
        </CharString>
        <CharString name="record">
          21 -21 hstem
          0 864 -57 callgsubr
          endchar
        </CharString>
        <CharString name="redirect">
          18 callsubr
          34 171 rmoveto
          hintmask 01100000
          81 65 153 36 180 hhcurveto
          -162 0 callsubr
          396 306 rlineto
          4 3 3 5 6 vvcurveto
          6 -3 5 -4 3 vhcurveto
          -396 306 -5 4 -8 1 -6 -3 rlinecurve
          -11 callgsubr
          -162 vlineto
          -270 -153 -153 -244 -9 hvcurveto
          -8 6 -7 8 -2 vhcurveto
          73 callgsubr
          hintmask 10100000
          6 4 3 6 6 hvcurveto
          endchar
        </CharString>
        <CharString name="refresh">
          48 callgsubr
          36 144 vstem
          864 846 rmoveto
          -90 callsubr
          -134 -135 rcurveline
          65 -71 -93 39 -103 hhcurveto
          -218 -178 -178 -218 -218 178 -178 218 102 94 39 64 70 hvcurveto
          -39 callgsubr
          1 0 1 0 -3 callgsubr
          3 3 2 4 5 vvcurveto
          5 -1 4 -4 3 vhcurveto
          1 1 callgsubr
          vhcurveto
          -77 77 -6 6 -11 1 -7 -7 rlinecurve
          -38 -45 -58 -24 -63 hhcurveto
          -139 -113 113 52 callgsubr
          -49 callsubr
          endchar
        </CharString>
        <CharString name="removecalendar">
          0 270 -104 callsubr
          -198 -594 rmoveto
          -360 108 360 64 callsubr
        </CharString>
        <CharString name="repeat">
          69 callgsubr
          hstem
          0 144 36 198 108 198 36 144 vstem
          679 661 rmoveto
          -9 callsubr
          -74 callgsubr
          -90 -198 vlineto
          -30 callsubr
          -72 27 -66 44 -51 hvcurveto
          -4 3 5 -17 callgsubr
          4 5 1 4 3 hvcurveto
          78 77 6 7 0 10 -5 7 rlinecurve
          0 vlineto
          -19 24 -12 31 34 vvcurveto
          79 64 65 80 vhcurveto
          198 -53 callgsubr
          -76 callsubr
          rrcurveto
          -494 -458 rmoveto
          -8 callgsubr
          -75 callsubr
          90 198 vlineto
          -5 callgsubr
          72 -27 66 -44 51 hvcurveto
          4 -3 58 callgsubr
          -4 -5 -1 -4 -3 hvcurveto
          -78 -78 -6 -6 -1 -10 6 -7 rlinecurve
          0 vlineto
          19 -24 12 -31 -34 vvcurveto
          -80 -65 -64 -79 vhcurveto
          -198 -65 callsubr
          rrcurveto
          endchar
        </CharString>
        <CharString name="replay">
          48 callgsubr
          684 144 vstem
          828 432 63 callgsubr
          -103 -93 -39 -65 -71 vhcurveto
          -134 135 -74 callgsubr
          65 callsubr
          342 hlineto
          -77 callgsubr
          -106 105 rcurveline
          39 44 58 23 63 hhcurveto
          139 113 -113 -139 67 callsubr
          -63 -59 24 38 -44 hvcurveto
          -7 7 -11 -1 -6 -6 -77 -77 rcurveline
          1 callgsubr
          -1 -1 vhcurveto
          -3 -3 -1 -4 -5 vvcurveto
          -5 2 -4 3 -3 vhcurveto
          -3 callgsubr
          0 0 -1 0 1 1 callgsubr
          vhcurveto
          -64 70 94 -39 102 hhcurveto
          218 178 178 218 hvcurveto
          endchar
        </CharString>
        <CharString name="reply">
          18 callsubr
          hintmask 01100000
          830 171 rmoveto
          -6 6 4 -3 6 73 callgsubr
          8 2 6 7 8 vvcurveto
          244 -9 -153 153 -270 hhcurveto
          162 vlineto
          -41 callsubr
          -6 3 -8 -1 -5 -4 -396 -306 rcurveline
          -4 -3 -3 -5 -6 vvcurveto
          -6 3 -5 4 -3 vhcurveto
          396 -306 0 callgsubr
          162 vlineto
          180 153 -36 -81 65 hvcurveto
          endchar
        </CharString>
        <CharString name="retweet">
          108 77 callgsubr
          198 -18 144 hstemhm
          108 54 callsubr
          hintmask 10111000
          675 126 rmoveto
          5 -1 4 -3 3 vhcurveto
          -109 109 rlineto
          3 -3 58 callgsubr
          -279 -12 callsubr
          hintmask 11011000
          -65 callgsubr
          hlineto
          -90 72 -72 90 vhcurveto
          387 hlineto
          hintmask 10111000
          13 callsubr
          184 275 -56 callgsubr
          -90 162 hlineto
          89 -73 73 -89 vhcurveto
          -387 74 callgsubr
          -101 callsubr
          -5 1 -4 3 -3 vhcurveto
          109 -109 rlineto
          4 callgsubr
          279 hlineto
          10 8 -8 -10 hvcurveto
          -49 callgsubr
          endchar
        </CharString>
        <CharString name="rewind">
          -30 callgsubr
          432 vmoveto
          -16 callgsubr
          228 vlineto
          295 -242 -19 callgsubr
          828 vlineto
          -41 callsubr
          1 -3 -2 1 -3 hhcurveto
          -4 -4 -1 -3 -3 hvcurveto
          -295 -242 rlineto
          228 vlineto
          -41 callsubr
          1 -3 -2 1 -3 hhcurveto
          -4 -4 -1 -3 -3 hvcurveto
          -504 -414 rlineto
          51 callgsubr
          -5 -5 vvcurveto
          endchar
        </CharString>
        <CharString name="right">
          14 callsubr
          -81 callsubr
          463 841 rmoveto
          -85 callgsubr
          -234 -414 29 callsubr
          -288 -107 callgsubr
          414 -234 hlineto
          -78 callsubr
          396 396 rcurveline
          -60 callgsubr
          -396 396 rlineto
          endchar
        </CharString>
        <CharString name="rows">
          35 callgsubr
          864 cntrmask 11100000
          864 522 rmoveto
          -88 callsubr
          504 vmoveto
          -88 callsubr
          -468 vmoveto
          -88 callsubr
          endchar
        </CharString>
        <CharString name="rss">
          21 -21 432 162 -18 callgsubr
          hstem
          0 270 -2 callgsubr
          -18 callgsubr
          vstem
          270 135 rmoveto
          75 -60 60 -75 -75 -60 -60 -75 -75 60 -60 75 75 60 60 75 vhcurveto
          594 -117 rmoveto
          467 -379 379 -467 39 callgsubr
          378 306 -306 -378 -107 callsubr
          126 -100 callsubr
          -270 hmoveto
          318 -258 258 -318 39 callgsubr
          229 185 -185 -229 -107 callsubr
          126 37 callsubr
        </CharString>
        <CharString name="s">
          -105 -14 67 347 67 hstemhm
          30 75 -59 73 198 74 -62 76 hintmask 11010100
          405 137 rmoveto
          -2 77 -61 26 -69 19 rrcurveto
          -116 28 -38 7 42 vvcurveto
          62 3 71 2 17 hhcurveto
          hintmask 11011000
          71 36 -27 -49 hvcurveto
          74 hlineto
          44 -2 -24 99 -147 hhcurveto
          -97 -75 -50 -95 -81 72 -22 54 -13 hvcurveto
          hintmask 11100100
          142 -34 15 -14 -34 vvcurveto
          -49 -51 -22 -52 -103 -18 52 41 vhcurveto
          -75 hlineto
          -117 8 83 -43 105 hhcurveto
          hintmask 11010100
          114 65 67 84 hvcurveto
          endchar
        </CharString>
        <CharString name="sample">
          -30 callgsubr
          504 360 rmoveto
          -288 -288 rlineto
          -18 -18 -18 0 -18 hhcurveto
          -18 -18 0 -17 -18 hvcurveto
          -1 -1 -30 -31 -7 -7 -11 0 -7 7 rlinecurve
          -47 47 -7 7 0 11 7 7 rlinecurve
          31 31 rlineto
          18 18 0 18 18 vvcurveto
          18 0 18 18 18 vhcurveto
          288 288 144 -144 rlineto
          -36 288 rmoveto
          -48 49 -46 callsubr
          -47 -48 -40 callgsubr
          rlinecurve
          277 -277 4 callsubr
          rlinecurve
          48 47 -76 callsubr
          rlinecurve
          -49 48 31 callgsubr
          49 49 0 81 -49 50 rlinecurve
          -50 49 -81 0 -49 -49 -179 -179 rcurveline
          endchar
        </CharString>
        <CharString name="search">
          21 -21 216 40 callsubr
          -26 callsubr
          432 108 -98 callsubr
          -540 vmoveto
          -35 callgsubr
        </CharString>
        <CharString name="send">
          22 -21 8 callsubr
          844 rmoveto
          1 6 -3 7 -6 4 -6 4 -7 0 -6 -3 -828 -468 rcurveline
          -6 -4 -3 -6 -7 vvcurveto
          -6 4 -6 6 -3 vhcurveto
          180 -90 rlineto
          -1 2 3 57 callsubr
          4 1 3 4 hvcurveto
          511 441 -393 -506 rlineto
          -3 -3 -1 -4 -4 vvcurveto
          -180 vlineto
          -8 5 -7 7 -2 vhcurveto
          -1 2 2 0 2 hhcurveto
          6 5 3 4 3 hvcurveto
          99 132 275 -137 5 -3 6 0 5 3 rlinecurve
          6 3 3 5 1 6 rrcurveto
          endchar
        </CharString>
        <CharString name="settings">
          21 -21 594 270 hstem
          -18 callgsubr
          324 162 vstem
          752 382 rmoveto
          3 16 1 17 17 vvcurveto
          17 -1 17 -3 16 vhcurveto
          83 72 6 4 2 8 -3 7 rlinecurve
          -17 52 -29 49 -36 41 -5 6 -7 2 -7 -3 -104 -36 rcurveline
          -26 21 -29 17 -31 12 -21 108 rcurveline
          -1 7 -6 6 -7 1 -54 11 -56 0 -54 -11 -7 -1 -6 -6 -1 -7 -21 -108 rcurveline
          -31 -12 -30 -17 -25 -21 -104 36 rcurveline
          -7 3 -7 -2 -5 -6 -36 -41 -29 -49 -17 -52 -3 -7 2 -8 6 -4 83 -72 rcurveline
          -3 -16 -1 -17 -17 vvcurveto
          -17 1 -17 3 -16 vhcurveto
          -83 -72 -6 -4 -2 -8 3 -7 rlinecurve
          17 -52 29 -49 36 -41 5 -6 7 -2 7 3 104 36 rcurveline
          25 -21 30 -17 31 -12 21 -108 rcurveline
          1 -7 6 -6 7 -1 rrcurveto
          -5 27 27 -3 28 hhcurveto
          28 27 3 5 27 hvcurveto
          7 1 6 6 1 7 21 108 rcurveline
          31 12 29 17 26 21 104 -36 rcurveline
          7 -3 7 2 5 6 36 41 29 49 17 52 3 7 -2 8 -6 4 -83 72 rcurveline
          -320 -112 -54 callsubr
        </CharString>
        <CharString name="shuffle">
          69 callgsubr
          hstem
          666 198 vstem
          294 615 rmoveto
          -19 27 rlineto
          49 -37 -58 29 -62 hhcurveto
          -100 -99 callgsubr
          99 41 callgsubr
          44 -59 rlineto
          655 -292 -92 callsubr
          -99 42 callsubr
          -45 59 -90 -120 20 -27 rlineto
          -49 37 58 -29 62 hhcurveto
          100 -72 callgsubr
          162 594 -92 callsubr
          -100 vlineto
          -62 -58 -29 -49 -37 hvcurveto
          -249 -332 rlineto
          57 callgsubr
          -99 -99 callgsubr
          100 hlineto
          62 58 29 49 37 hvcurveto
          249 332 42 callgsubr
          99 -72 callgsubr
          endchar
        </CharString>
        <CharString name="signpost">
          0 144 72 216 162 216 hstem
          31 callsubr
          vstem
          859 311 rmoveto
          -76 callsubr
          -90 90 rcurveline
          -42 callgsubr
          -252 90 -144 -90 -31 callsubr
          -180 -107 callgsubr
          684 hlineto
          -81 callgsubr
          41 571 -66 callgsubr
          -288 36 54 callgsubr
          -108 -106 callgsubr
          -36 -252 vlineto
          -27 callgsubr
          -90 -90 -45 callgsubr
          90 -90 41 callsubr
          684 -100 callsubr
          -306 -468 rmoveto
          -144 -126 hlineto
          -107 callsubr
          108 37 callsubr
        </CharString>
        <CharString name="skipback">
          -59 callgsubr
          54 144 vstem
          198 -29 callsubr
          -108 -106 callgsubr
          -828 19 callsubr
          612 828 rmoveto
          38 callsubr
          -504 -414 rcurveline
          51 callgsubr
          -5 -5 vvcurveto
          3 callgsubr
          0 callgsubr
          endchar
        </CharString>
        <CharString name="skipforward">
          -59 callgsubr
          666 144 vstem
          666 846 rmoveto
          -828 vlineto
          -10 8 -8 10 vhcurveto
          108 23 callgsubr
          -108 -106 callgsubr
          -612 hmoveto
          -828 0 callsubr
          504 414 rlineto
          5 3 2 6 5 vvcurveto
          3 callsubr
          -5 4 -7 1 -7 -3 rlinecurve
          -11 callgsubr
          endchar
        </CharString>
        <CharString name="space">
          -323 endchar
        </CharString>
        <CharString name="star">
          -64 callgsubr
          859 509 -56 callgsubr
          -276 hlineto
          -121 312 rlineto
          7 -3 -7 5 -7 hhcurveto
          -69 callgsubr
          242 -156 rlineto
          -2 3 4 -1 3 hhcurveto
          3 4 1 2 3 hvcurveto
          6 4 3 7 -1 7 -53 279 rcurveline
          210 209 rlineto
          endchar
        </CharString>
        <CharString name="stop">
          12 callsubr
          18 rmoveto
          -67 callgsubr
          -828 -14 callgsubr
          endchar
        </CharString>
        <CharString name="stopwatch">
          21 -21 648 216 hstem
          504 36 vstem
          805 648 7 callsubr
          -77 77 rcurveline
          -27 callsubr
          -60 -59 rcurveline
          -31 22 -35 16 -37 11 rrcurveto
          106 -95 callgsubr
          -106 vlineto
          -156 -46 -114 -145 -171 vvcurveto
          10 callsubr
          78 -24 73 -41 60 vhcurveto
          60 59 rlineto
          -301 -270 rmoveto
          15 callgsubr
          254 rlineto
          72 -270 hlineto
          endchar
        </CharString>
        <CharString name="stroke">
          53 callgsubr
          hstem
          53 callgsubr
          vstem
          864 -29 callsubr
          -6 callsubr
          -234 252 vlineto
          20 16 -16 -20 hvcurveto
          -252 234 -51 callsubr
          -342 198 rmoveto
          -6 callsubr
          -504 -107 callgsubr
          504 -100 callsubr
          69 callsubr
          -414 -432 rmoveto
          324 324 -324 -324 vlineto
          endchar
        </CharString>
        <CharString name="sync">
          22 -21 35 144 62 136 108 136 62 144 -81 callsubr
          821 357 rmoveto
          1 5 -2 5 -3 4 rrcurveto
          5 -3 -6 2 -5 hhcurveto
          -111 hlineto
          -8 -7 -5 -8 -2 hvcurveto
          -3 callgsubr
          -107 -30 -97 -78 -116 hhcurveto
          -63 -58 23 39 -44 hvcurveto
          106 105 -20 callsubr
          -342 -106 callgsubr
          -342 vlineto
          -86 callsubr
          134 135 rlineto
          -65 71 93 -39 103 hhcurveto
          193 160 138 183 36 hvcurveto
          0 vlineto
          -3 callgsubr
          -778 150 rmoveto
          -1 -5 2 -5 3 -5 rrcurveto
          -4 3 5 -2 6 hhcurveto
          111 hlineto
          8 7 5 8 2 hvcurveto
          -3 callgsubr
          107 30 97 78 116 hhcurveto
          -49 callsubr
          -60 callsubr
          1 -2 -3 0 -2 hhcurveto
          -27 callgsubr
          -134 -135 rlineto
          65 -71 -93 39 -103 hhcurveto
          -193 -161 -138 -183 -35 hvcurveto
          0 vlineto
          -3 callgsubr
          endchar
        </CharString>
        <CharString name="t">
          -299 -15 66 334 69 hstem
          75 78 vstem
          227 54 rmoveto
          -2 -13 -10 -1 -9 hhcurveto
          -31 -11 14 33 hvcurveto
          287 74 69 -74 128 -78 -128 -59 -69 59 -303 vlineto
          -53 44 -44 68 12 14 2 3 14 vhcurveto
          endchar
        </CharString>
        <CharString name="tablet">
          8 callgsubr
          hstem
          -9 callgsubr
          432 17 callsubr
          702 -33 callgsubr
          -540 -14 callsubr
          756 -88 callgsubr
          -54 -756 rmoveto
          -432 648 432 -648 hlineto
          endchar
        </CharString>
        <CharString name="tag">
          -46 callgsubr
          756 17 callsubr
          16 317 rmoveto
          301 -301 21 -21 35 0 21 21 rlinecurve
          465 465 rlineto
          3 3 2 5 4 vvcurveto
          317 -88 callgsubr
          -317 hlineto
          -4 -5 -2 -3 -3 hvcurveto
          -465 -465 56 callsubr
          rlinecurve
          578 358 rmoveto
          44 callgsubr
          -13 callgsubr
          vhcurveto
          endchar
        </CharString>
        <CharString name="target">
          -34 callsubr
          hstem
          0 144 576 144 -103 callgsubr
          -720 vmoveto
          -159 -129 129 159 -5 callgsubr
          159 129 -129 -159 -30 callsubr
          hvcurveto
          -144 288 rmoveto
          79 64 65 80 79 65 -65 -79 -80 -65 -64 -79 -80 -64 64 80 vhcurveto
          endchar
        </CharString>
        <CharString name="text">
          21 -21 702 162 hstem
          -39 callsubr
          vstem
          810 -29 callsubr
          -720 -106 callgsubr
          -126 -107 callgsubr
          252 -684 21 callgsubr
          684 252 -51 callsubr
          126 vlineto
          endchar
        </CharString>
        <CharString name="thumbnails">
          -64 callgsubr
          360 486 -78 callgsubr
          -144 -486 -78 callgsubr
          endchar
        </CharString>
        <CharString name="transfer">
          69 callgsubr
          hstemhm
          18 198 -198 828 -198 198 hintmask 11010000
          hintmask 11101000
          841 635 -92 callsubr
          -576 29 callsubr
          -108 -107 callgsubr
          576 -56 callsubr
          rrcurveto
          131 -203 -66 callgsubr
          -576 -65 callsubr
          -8 callgsubr
          rcurveline
          -41 callgsubr
          rrcurveto
          -66 callsubr
          90 576 72 callgsubr
        </CharString>
        <CharString name="trash">
          -46 callgsubr
          36 792 vstem
          9 callsubr
          -756 -21 callgsubr
          756 -100 callsubr
          72 -100 callgsubr
          -702 -180 rmoveto
          54 -668 rlineto
          -9 1 8 -7 9 hhcurveto
          504 hlineto
          9 8 7 9 1 hvcurveto
          54 668 rlineto
          endchar
        </CharString>
        <CharString name="u">
          -55 -12 68 -56 56 -35 -21 hstemhm
          49 79 217 78 hintmask 00111000
          49 454 rmoveto
          -302 vlineto
          hintmask 10011000
          -116 66 -48 88 77 54 55 23 14 vhcurveto
          hintmask 00111000
          -66 75 454 -78 -259 vlineto
          hintmask 01011000
          -88 -58 -51 -70 -70 -19 49 65 vhcurveto
          284 vlineto
          endchar
        </CharString>
        <CharString name="unlock">
          -46 callgsubr
          432 108 -26 callsubr
          vstem
          756 396 rmoveto
          -107 callsubr
          72 -100 callsubr
          252 vlineto
          -47 callgsubr
          vhcurveto
          -162 -378 -44 callgsubr
          -54 162 hlineto
          61 callsubr
          -252 vlineto
          endchar
        </CharString>
        <CharString name="up">
          -59 callgsubr
          14 callsubr
          vstem
          23 463 rmoveto
          -74 callsubr
          234 -414 19 callgsubr
          414 234 vlineto
          -77 callgsubr
          -396 396 rcurveline
          -48 callsubr
          -396 -396 rlineto
          endchar
        </CharString>
        <CharString name="upleft">
          108 756 hstem
          0 756 vstem
          751 337 rmoveto
          -312 311 186 185 -20 callsubr
          -594 -106 callgsubr
          -594 vlineto
          -78 callsubr
          185 186 rcurveline
          311 -312 -28 callgsubr
          rlinecurve
          198 198 -76 callsubr
          rlinecurve
          endchar
        </CharString>
        <CharString name="upload">
          -59 callsubr
          -13 499 rmoveto
          -74 callsubr
          198 -234 19 callgsubr
          234 198 vlineto
          -77 callgsubr
          -360 360 rcurveline
          -48 callsubr
          endchar
        </CharString>
        <CharString name="uploadcloud">
          -18 callgsubr
          hstemhm
          0 208 -208 864 hintmask 10100000
          -80 callgsubr
          hintmask 11000000
          -6 callgsubr
          171 162 -135 33 callgsubr
          220 219 rcurveline
          220 -219 5 -5 1 -8 -2 -7 rlinecurve
          55 callsubr
          -135 -162 144 hlineto
          hintmask 10100000
          6 callgsubr
          hvcurveto
          endchar
        </CharString>
        <CharString name="upright">
          108 756 hstem
          108 756 vstem
          113 337 rmoveto
          -62 callsubr
          198 -198 rcurveline
          -28 callgsubr
          311 312 rcurveline
          185 -186 -75 callsubr
          594 -100 callgsubr
          -594 hlineto
          -83 callgsubr
          186 -185 rcurveline
          -312 -311 rlineto
          endchar
        </CharString>
        <CharString name="user">
          -24 callsubr
          0 -9 callgsubr
          198 vvcurveto
          -47 callgsubr
          -198 108 -108 0 -43 callgsubr
        </CharString>
        <CharString name="users">
          -59 callgsubr
          180 180 77 callgsubr
          vstem
          864 270 -15 callgsubr
          -18 1 -16 2 -16 vhcurveto
          0 0 -1 0 vhcurveto
          0 69 -61 -104 vvcurveto
          -143 -64 -97 0 vhcurveto
          0 17 -16 43 -14 vhcurveto
          346 -100 callsubr
          -324 -180 -15 callgsubr
          -149 72 -81 0 vhcurveto
          -112 -180 35 -125 vvcurveto
          -36 -107 callgsubr
          504 37 callsubr
        </CharString>
        <CharString name="v">
          -105 0 82 -61 -21 hstemhm
          -3 420 hintmask 01100000
          417 454 rmoveto
          -82 hlineto
          hintmask 10100000
          -127 -372 -124 372 rlineto
          -87 hlineto
          165 -454 rlineto
          82 hlineto
          endchar
        </CharString>
        <CharString name="video">
          61 callgsubr
          864 684 rmoveto
          -90 callsubr
          -185 -186 rcurveline
          137 -88 callgsubr
          25 callgsubr
          -432 -85 callsubr
          137 vlineto
          185 -186 rlineto
          -80 callsubr
          504 vlineto
          endchar
        </CharString>
        <CharString name="view">
          144 126 324 126 -81 callsubr
          861 442 rmoveto
          -2 3 rlineto
          0 -184 275 -243 -243 -186 -278 0 vhcurveto
          -4 -6 0 -8 4 -6 rrcurveto
          0 186 -278 243 243 186 278 0 vhcurveto
          4 6 0 8 -4 6 rrcurveto
          -429 -172 -54 callsubr
        </CharString>
        <CharString name="volume">
          71 callgsubr
          216 378 hintmask 10100000
          594 774 rmoveto
          -90 callsubr
          rrcurveto
          hintmask 01100000
          -24 callgsubr
          rlineto
          -82 callsubr
          hintmask 10100000
          684 vlineto
          endchar
        </CharString>
        <CharString name="w">
          89 0 96 -75 -21 hstemhm
          12 603 hintmask 01100000
          615 454 rmoveto
          -76 hlineto
          hintmask 10100000
          -91 -358 -89 358 rlineto
          -85 hlineto
          -93 -358 -86 358 rlineto
          -83 hlineto
          130 -454 rlineto
          80 hlineto
          91 351 91 -351 rlineto
          80 hlineto
          endchar
        </CharString>
        <CharString name="warehouse">
          -53 callsubr
          198 vstem
          864 684 rmoveto
          -41 callsubr
          -5 3 -8 0 -5 -4 -296 -197 rcurveline
          182 vlineto
          -41 callsubr
          -5 3 -8 0 -5 -4 -314 -209 rcurveline
          356 -100 callgsubr
          -162 -14 callgsubr
          666 vlineto
          endchar
        </CharString>
        <CharString name="wifi">
          117 153 78 callgsubr
          144 hstemhm
          1 862 -532 201 hintmask 01110000
          858 536 7 callsubr
          -235 236 -382 0 -235 -236 -40 callgsubr
          76 -76 rcurveline
          2 -2 2 -1 2 -1 rrcurveto
          -1 2 2 57 callsubr
          5 2 4 3 hvcurveto
          180 179 290 0 180 -179 rrcurveto
          -4 3 4 -17 callgsubr
          3 2 1 1 2 hvcurveto
          2 50 callsubr
          rrcurveto
          -89 -90 rmoveto
          -76 callsubr
          -144 144 -234 0 76 callgsubr
          -62 callsubr
          76 -76 rcurveline
          2 -2 2 -1 2 -1 rrcurveto
          -55 callgsubr
          -81 callgsubr
          88 88 142 0 88 -88 rrcurveto
          4 callgsubr
          -26 callgsubr
          2 50 callsubr
          rrcurveto
          hintmask 11101000
          -90 -89 7 callsubr
          -52 53 -86 0 -53 -53 -40 callgsubr
          83 -83 rcurveline
          -28 callgsubr
          rrcurveto
          endchar
        </CharString>
        <CharString name="write">
          -30 callgsubr
          702 540 rmoveto
          -445 -445 -58 callgsubr
          445 445 rcurveline
          -8 callgsubr
          rlineto
          146 223 -35 callsubr
        </CharString>
        <CharString name="writingdisabled">
          -30 callgsubr
          261 423 rmoveto
          -8 callgsubr
          -166 -166 -58 callgsubr
          166 166 rcurveline
          534 -354 rmoveto
          -10 -10 -14 -5 -13 hhcurveto
          -13 -14 5 10 -10 hvcurveto
          -653 653 -20 20 0 33 20 21 rlinecurve
          20 20 33 0 21 -20 246 -246 rcurveline
          152 152 -8 callgsubr
          -152 -152 245 -245 20 -21 0 -33 -20 -20 rlinecurve
          53 694 -35 callsubr
        </CharString>
        <CharString name="x">
          -105 -59 callgsubr
          9 416 vstem
          425 hmoveto
          -160 233 153 221 rlineto
          -92 hlineto
          -106 -161 -105 161 rlineto
          -98 hlineto
          152 -220 -160 -234 rlineto
          96 hlineto
          110 171 112 -171 rlineto
          endchar
        </CharString>
        <CharString name="y">
          -105 -187 68 hstem
          10 415 vstem
          425 454 rmoveto
          -82 hlineto
          -123 -371 -124 371 rlineto
          -86 hlineto
          170 -468 -31 -72 -23 -43 -38 6 -35 13 rlinecurve
          -70 vlineto
          86 -19 39 19 37 74 17 34 92 239 101 287 rrcurveto
          endchar
        </CharString>
        <CharString name="z">
          -105 0 62 328 64 hstem
          27 380 vstem
          407 hmoveto
          62 -280 vlineto
          271 329 rlineto
          63 -350 -64 252 vlineto
          -273 -331 rlineto
          -59 vlineto
          endchar
        </CharString>
        <CharString name="zoomin">
          21 -21 25 callsubr
          -86 callgsubr
          -378 rmoveto
          -126 -126 -108 43 callsubr
          108 76 callsubr
          108 59 callgsubr
          64 callsubr
        </CharString>
        <CharString name="zoomout">
          21 -21 216 270 108 270 -86 callgsubr
          -270 rmoveto
          -108 -360 108 360 vlineto
          endchar
        </CharString>
      <CharString index="0">
        vlineto
        -107 callsubr
        return
      </CharString>
      <CharString index="1">
        hlineto
        -105 callsubr
        return
      </CharString>
      <CharString index="2">
        -180 -102 callgsubr
        180 -95 callgsubr
        return
      </CharString>
      <CharString index="3">
        10 -8 8 -10 vhcurveto
        return
      </CharString>
      <CharString index="4">
        -50 callgsubr
        -101 callgsubr
        -68 callsubr
        hvcurveto
        return
      </CharString>
      <CharString index="5">
        vlineto
        35 callsubr
        return
      </CharString>
      <CharString index="6">
        -239 -24 callgsubr
        -239 -72 callsubr
        239 193 193 239 return
      </CharString>
      <CharString index="7">
        vlineto
        -104 callgsubr
        return
      </CharString>
      <CharString index="8">
        -106 callgsubr
        -108 -107 callgsubr
        return
      </CharString>
      <CharString index="9">
        -95 callsubr
        756 -97 callgsubr
        return
      </CharString>
      <CharString index="10">
        hlineto
        -93 callgsubr
        return
      </CharString>
      <CharString index="11">
        -105 callgsubr
        324 hmoveto
        -105 callgsubr
        return
      </CharString>
      <CharString index="12">
        -100 callgsubr
        -180 -106 callgsubr
        return
      </CharString>
      <CharString index="13">
        30 -24 24 -30 vhcurveto
        return
      </CharString>
      <CharString index="14">
        -89 callgsubr
        hvcurveto
        return
      </CharString>
      <CharString index="15">
        hstem
        540 55 callgsubr
        vstem
        810 324 rmoveto
        -61 callsubr
        -216 vlineto
        -30 24 -24 30 vhcurveto
        756 23 callsubr
        -324 -216 rmoveto
        -90 callgsubr
        216 hmoveto
        -90 callgsubr
        89 710 rmoveto
        26 -4 -22 20 -27 hhcurveto
        return
      </CharString>
      <CharString index="16">
        -79 callsubr
        -102 callsubr
        hvcurveto
        return
      </CharString>
      <CharString index="17">
        -83 callsubr
        -96 callsubr
        return
      </CharString>
      <CharString index="18">
        30 24 24 30 return
      </CharString>
      <CharString index="19">
        vlineto
        -94 callgsubr
        return
      </CharString>
      <CharString index="20">
        -106 callsubr
        342 -100 callgsubr
        -342 -106 callgsubr
        65 callsubr
        return
      </CharString>
      <CharString index="21">
        hstem
        25 callsubr
        -98 callsubr
        180 return
      </CharString>
      <CharString index="22">
        -5 5 -8 1 -7 -2 rrcurveto
        -7 -3 -4 -7 -7 vvcurveto
        return
      </CharString>
      <CharString index="23">
        -79 callgsubr
        108 return
      </CharString>
      <CharString index="24">
        -7 -7 -4 -7 -3 hvcurveto
        -2 -7 1 -8 5 -5 return
      </CharString>
      <CharString index="25">
        rmoveto
        158 158 0 256 -158 158 -37 callsubr
        116 -116 0 -188 -116 -116 -45 callsubr
        -8 51 -50 rcurveline
        4 callsubr
        rrcurveto
        -196 628 rmoveto
        -90 callsubr
        return
      </CharString>
      <CharString index="26">
        5 4 2 3 4 hvcurveto
        return
      </CharString>
      <CharString index="27">
        864 324 rmoveto
        102 -71 86 -95 22 vhcurveto
        126 -23 -110 96 -133 hhcurveto
        -29 callgsubr
        hvcurveto
        -1 0 0 -1 vvcurveto
        return
      </CharString>
      <CharString index="28">
        -71 callgsubr
        vhcurveto
        return
      </CharString>
      <CharString index="29">
        rmoveto
        -87 callgsubr
        828 hmoveto
        -87 callgsubr
        return
      </CharString>
      <CharString index="30">
        -55 callsubr
        -54 callgsubr
        return
      </CharString>
      <CharString index="31">
        -7 4 -7 7 -3 vhcurveto
        -55 callgsubr
        return
      </CharString>
      <CharString index="32">
        -3 4 4 -17 callgsubr
        return
      </CharString>
      <CharString index="33">
        -5 5 -8 1 -7 -2 rlinecurve
        -7 -3 -4 -7 -7 vvcurveto
        return
      </CharString>
      <CharString index="34">
        -104 callgsubr
        -108 hlineto
        -10 -8 -8 -10 hvcurveto
        -108 19 callsubr
        return
      </CharString>
      <CharString index="35">
        -90 hlineto
        -86 callsubr
        return
      </CharString>
      <CharString index="36">
        -30 -24 -3 callsubr
        24 30 return
      </CharString>
      <CharString index="37">
        144 53 82 93 7 vhcurveto
        9 1 7 8 9 vvcurveto
        163 vlineto
        10 -8 8 -10 -216 -144 -180 -252 vhcurveto
        68 callgsubr
        270 23 callsubr
        return
      </CharString>
      <CharString index="38">
        -7 -7 -5 -7 -3 hvcurveto
        -121 -312 rlineto
        -276 hlineto
        -83 callgsubr
        210 -209 rcurveline
        -53 -279 -1 -7 3 -7 6 -4 rlinecurve
        6 -4 8 0 6 4 242 156 rcurveline
        return
      </CharString>
      <CharString index="39">
        -91 callsubr
        -31 callgsubr
        return
      </CharString>
      <CharString index="40">
        828 -100 callgsubr
        return
      </CharString>
      <CharString index="41">
        rmoveto
        -104 callgsubr
        return
      </CharString>
      <CharString index="42">
        162 90 vlineto
        -77 callgsubr
        -9 callsubr
        rcurveline
        -62 callgsubr
        59 callsubr
        rcurveline
        -74 callsubr
        90 -162 return
      </CharString>
      <CharString index="43">
        21 -21 -81 callsubr
        return
      </CharString>
      <CharString index="44">
        5 callsubr
        rlinecurve
        -63 callsubr
        return
      </CharString>
      <CharString index="45">
        -7 7 -12 0 -7 -7 return
      </CharString>
      <CharString index="46">
        0 864 return
      </CharString>
      <CharString index="47">
        3 4 2 4 5 vvcurveto
        -42 callsubr
        return
      </CharString>
      <CharString index="48">
        21 -21 hstem
        return
      </CharString>
      <CharString index="49">
        -2 -2 -2 -1 -2 -1 rlinecurve
        -226 -90 rlineto
        -1 -3 -2 0 -2 hhcurveto
        -5 -4 2 3 -4 hvcurveto
        -5 5 -1 8 2 7 90 226 rcurveline
        50 callsubr
        2 return
      </CharString>
      <CharString index="50">
        vstem
        864 432 rmoveto
        -68 callsubr
        -101 callgsubr
        vhcurveto
        return
      </CharString>
      <CharString index="51">
        rmoveto
        -28 callsubr
        rrcurveto
        -40 callsubr
        return
      </CharString>
      <CharString index="52">
        -1 6 callsubr
        2 hhcurveto
        return
      </CharString>
      <CharString index="53">
        2 7 -1 8 -5 5 return
      </CharString>
      <CharString index="54">
        -56 callsubr
        -2 callgsubr
        rcurveline
        return
      </CharString>
      <CharString index="55">
        -53 callgsubr
        -60 callgsubr
        -9 callsubr
        return
      </CharString>
      <CharString index="56">
        -414 504 rlineto
        5 -4 58 callgsubr
        -5 -6 -2 -5 -3 hvcurveto
        -414 -504 -4 -5 -1 -7 3 -7 rlinecurve
        -6 3 6 -4 7 hhcurveto
        return
      </CharString>
      <CharString index="57">
        60 callgsubr
        -33 callgsubr
        return
      </CharString>
      <CharString index="58">
        -162 -90 vlineto
        -83 callgsubr
        -8 callgsubr
        rcurveline
        -77 callsubr
        return
      </CharString>
      <CharString index="59">
        -60 48 -48 60 9 callgsubr
        -48 48 -60 -60 -48 -48 -60 vhcurveto
        return
      </CharString>
      <CharString index="60">
        119 -97 97 -47 callsubr
        return
      </CharString>
      <CharString index="61">
        21 -21 756 18 callgsubr
        return
      </CharString>
      <CharString index="62">
        -62 callsubr
        rlinecurve
        return
      </CharString>
      <CharString index="63">
        vlineto
        -96 callsubr
        -378 -85 callsubr
        378 -88 callgsubr
        return
      </CharString>
      <CharString index="64">
        vhcurveto
        -144 -324 36 -180 vvcurveto
        -36 -91 callgsubr
        hintmask 11000000
        36 vlineto
        endchar
      </CharString>
      <CharString index="65">
        3 -4 -4 2 -5 hhcurveto
        return
      </CharString>
      <CharString index="66">
        5 -5 8 -1 7 2 return
      </CharString>
      <CharString index="67">
        -45 callsubr
        -7 return
      </CharString>
      <CharString index="68">
        0 1 callgsubr
        return
      </CharString>
      <CharString index="69">
        -104 callgsubr
        -108 -106 callgsubr
        -504 19 callsubr
        return
      </CharString>
      <CharString index="70">
        -121 122 -74 callgsubr
        70 callsubr
        396 hlineto
        return
      </CharString>
      <CharString index="71">
        -26 vlineto
        -22 -25 -3 -5 -26 hvcurveto
        -104 -20 -85 -87 -79 vvcurveto
        -80 85 -48 104 21 vhcurveto
        104 20 85 83 108 vvcurveto
        return
      </CharString>
      <CharString index="72">
        -119 -97 97 119 6 callgsubr
        119 97 -97 -47 callsubr
        hvcurveto
        endchar
      </CharString>
      <CharString index="73">
        vlineto
        -7 4 -6 6 -3 vhcurveto
        return
      </CharString>
      <CharString index="74">
        864 rmoveto
        return
      </CharString>
      <CharString index="75">
        -97 callgsubr
        540 -88 callgsubr
        return
      </CharString>
      <CharString index="76">
        -324 -84 callsubr
        return
      </CharString>
      <CharString index="77">
        -61 callgsubr
        -81 callsubr
        return
      </CharString>
      <CharString index="78">
        -149 -121 -121 -149 return
      </CharString>
      <CharString index="79">
        7 -7 12 0 7 7 return
      </CharString>
      <CharString index="80">
        51 callgsubr
        -3 -4 hvcurveto
        return
      </CharString>
      <CharString index="81">
        6 callsubr
        1 2 hvcurveto
        return
      </CharString>
      <CharString index="82">
        -40 -32 -32 -40 return
      </CharString>
      <CharString index="83">
        -193 -193 return
      </CharString>
      <CharString index="84">
        40 -32 32 -40 vhcurveto
        -126 72 callsubr
        -40 32 -32 40 hvcurveto
        126 hlineto
        40 32 32 40 hvcurveto
        return
      </CharString>
      <CharString index="85">
        -21 callsubr
        504 414 rcurveline
        5 3 2 6 5 vvcurveto
        return
      </CharString>
      <CharString index="86">
        -106 callgsubr
        -72 -107 callgsubr
        return
      </CharString>
      <CharString index="87">
        -107 callgsubr
        72 -100 callsubr
        return
      </CharString>
      <CharString index="88">
        5 -4 7 -1 7 3 rlinecurve
        -12 callgsubr
        return
      </CharString>
      <CharString index="89">
        108 162 return
      </CharString>
      <CharString index="90">
        -2 5 hhcurveto
        return
      </CharString>
      <CharString index="91">
        3 callgsubr
        -19 callgsubr
        return
      </CharString>
      <CharString index="92">
        rmoveto
        126 -180 -36 112 0 72 81 149 vvcurveto
        26 callgsubr
        return
      </CharString>
      <CharString index="93">
        -106 callgsubr
        -828 -91 callgsubr
        return
      </CharString>
      <CharString index="94">
        -4 callsubr
        -45 -36 36 45 return
      </CharString>
      <CharString index="95">
        6 3 4 6 7 vvcurveto
        return
      </CharString>
      <CharString index="96">
        -6 -3 -4 -6 -7 vvcurveto
        return
      </CharString>
      <CharString index="97">
        hmoveto
        -106 callsubr
        return
      </CharString>
      <CharString index="98">
        108 108 return
      </CharString>
      <CharString index="99">
        162 -162 return
      </CharString>
      <CharString index="100">
        -126 -126 -45 callgsubr
        return
      </CharString>
      <CharString index="101">
        -92 -13 -70 -79 -95 vvcurveto
        -104 85 -85 104 vhcurveto
        return
      </CharString>
      <CharString index="102">
        159 129 129 159 return
      </CharString>
      <CharString index="103">
        -100 callsubr
        612 return
      </CharString>
      <CharString index="104">
        -39 callgsubr
        vhcurveto
        return
      </CharString>
      <CharString index="105">
        162 162 return
      </CharString>
      <CharString index="106">
        -108 vlineto
        return
      </CharString>
      <CharString index="107">
        rlineto
        -3 3 4 -1 4 hhcurveto
        3 2 1 1 3 hvcurveto
        -12 callgsubr
        return
      </CharString>
      <CharString index="108">
        0 0 0 return
      </CharString>
      <CharString index="109">
        hstemhm
        -61 callgsubr
        -540 216 hintmask 11000000
        return
      </CharString>
      <CharString index="110">
        -5 2 -6 5 -3 vhcurveto
        504 -414 return
      </CharString>
      <CharString index="111">
        -3 3 5 -17 callgsubr
        return
      </CharString>
      <CharString index="112">
        -3 -4 -2 -4 -5 vvcurveto
        return
      </CharString>
      <CharString index="113">
        119 97 97 119 return
      </CharString>
      <CharString index="114">
        108 432 -7 callsubr
        810 return
      </CharString>
      <CharString index="115">
        0 -25 callsubr
        108 return
      </CharString>
      <CharString index="116">
        60 48 48 60 60 return
      </CharString>
      <CharString index="117">
        -39 callsubr
        hstem
        return
      </CharString>
      <CharString index="118">
        -144 vlineto
        -60 145 -48 31 callgsubr
        145 48 60 vhcurveto
        return
      </CharString>
      <CharString index="119">
        -46 -72 -118 -26 -134 hhcurveto
        -134 -118 26 46 -72 hvcurveto
        return
      </CharString>
      <CharString index="120">
        hstem
        8 callgsubr
        vstem
        return
      </CharString>
      <CharString index="121">
        24 30 30 24 return
      </CharString>
      <CharString index="122">
        -25 callgsubr
        -40 -32 32 40 5 1 6 1 5 vhcurveto
        70 return
      </CharString>
      <CharString index="123">
        135 hlineto
        7 7 -4 -7 3 hvcurveto
        2 -7 -1 -8 -5 -5 return
      </CharString>
      <CharString index="124">
        26 callsubr
        92 -91 148 0 91 91 return
      </CharString>
      <CharString index="125">
        108 hstem
        return
      </CharString>
      <CharString index="126">
        hlineto
        -107 callsubr
        288 -100 callsubr
        return
      </CharString>
      <CharString index="127">
        92 92 0 148 -92 91 -91 92 -148 0 -92 -92 return
      </CharString>
      <CharString index="128">
        hlineto
        35 callsubr
        return
      </CharString>
      <CharString index="129">
        hlineto
        10 8 -8 -10 hvcurveto
        -504 vlineto
        30 callsubr
        return
      </CharString>
      <CharString index="130">
        hlineto
        -52 callsubr
        return
      </CharString>
      <CharString index="131">
        -97 callgsubr
        -32 callsubr
        return
      </CharString>
      <CharString index="132">
        -540 -91 callsubr
        return
      </CharString>
      <CharString index="133">
        89 -73 73 -89 -90 -72 -73 -89 return
      </CharString>
      <CharString index="134">
        159 -129 129 -159 return
      </CharString>
      <CharString index="135">
        149 -121 121 -149 return
      </CharString>
      <CharString index="136">
        5 -2 5 -4 3 vhcurveto
        return
      </CharString>
      <CharString index="137">
        -59 callgsubr
        108 return
      </CharString>
      <CharString index="138">
        179 179 return
      </CharString>
      <CharString index="139">
        108 144 return
      </CharString>
      <CharString index="140">
        hlineto
        -7 -7 4 7 -3 hvcurveto
        -2 7 1 8 5 5 return
      </CharString>
      <CharString index="141">
        hstem
        54 78 217 78 vstem
        427 hmoveto
        302 vlineto
        return
      </CharString>
      <CharString index="142">
        47 callgsubr
        hstem
        0 return
      </CharString>
      <CharString index="143">
        -106 callsubr
        180 -100 callgsubr
        return
      </CharString>
      <CharString index="144">
        rcurveline
        -49 -49 -80 0 -49 49 -49 49 0 80 49 49 return
      </CharString>
      <CharString index="145">
        -5 -5 -1 return
      </CharString>
      <CharString index="146">
        30 callsubr
        -126 vlineto
        -10 8 -8 10 return
      </CharString>
      <CharString index="147">
        rmoveto
        -324 162 324 -162 hlineto
        endchar
      </CharString>
      <CharString index="148">
        hlineto
        17 16 -8 -14 10 hvcurveto
        return
      </CharString>
      <CharString index="149">
        rlineto
        14 10 16 8 17 hhcurveto
        return
      </CharString>
      <CharString index="150">
        324 108 return
      </CharString>
      <CharString index="151">
        45 36 36 45 return
      </CharString>
      <CharString index="152">
        2 80 callgsubr
        return
      </CharString>
      <CharString index="153">
        0 45 -29 28 -89 89 rcurveline
        -28 29 -45 0 return
      </CharString>
      <CharString index="154">
        0 216 108 -11 callsubr
        return
      </CharString>
      <CharString index="155">
        36 144 306 136 62 144 hstem
        return
      </CharString>
      <CharString index="156">
        -33 callgsubr
        -6 callsubr
        return
      </CharString>
      <CharString index="157">
        432 18 callgsubr
        return
      </CharString>
      <CharString index="158">
        -5 -4 -2 return
      </CharString>
      <CharString index="159">
        139 139 113 113 139 return
      </CharString>
      <CharString index="160">
        0 108 43 callgsubr
        72 252 return
      </CharString>
      <CharString index="161">
        hlineto
        -104 callgsubr
        return
      </CharString>
      <CharString index="162">
        108 -9 callgsubr
        return
      </CharString>
      <CharString index="163">
        10 callgsubr
        0 return
      </CharString>
      <CharString index="164">
        -14 -10 -16 -8 -17 hhcurveto
        return
      </CharString>
      <CharString index="165">
        -5 2 -5 hhcurveto
        return
      </CharString>
      <CharString index="166">
        -126 126 return
      </CharString>
      <CharString index="167">
        vstem
        432 return
      </CharString>
      <CharString index="168">
        44 callsubr
        -81 callsubr
        return
      </CharString>
      <CharString index="169">
        hstem
        -34 callsubr
        vstem
        return
      </CharString>
      <CharString index="170">
        rmoveto
        218 -178 178 -218 return
      </CharString>
      <CharString index="171">
        hlineto
        -55 callsubr
        endchar
      </CharString>
      <CharString index="172">
        -624 vlineto
        endchar
      </CharString>
      <CharString index="173">
        9 callgsubr
        48 -48 -60 return
      </CharString>
      <CharString index="174">
        135 -13 75 500 75 hstem
        return
      </CharString>
      <CharString index="175">
        -270 -84 callsubr
        return
      </CharString>
      <CharString index="176">
        -10 callsubr
        288 144 return
      </CharString>
      <CharString index="177">
        194 -193 157 -239 return
      </CharString>
      <CharString index="178">
        72 720 -522 324 hstemhm
        return
      </CharString>
      <CharString index="179">
        -51 callsubr
        endchar
      </CharString>
      <CharString index="180">
        1 2 0 1 hhcurveto
        return
      </CharString>
      <CharString index="181">
        hlineto
        -39 callgsubr
        return
      </CharString>
      <CharString index="182">
        -102 callsubr
        vhcurveto
        return
      </CharString>
      <CharString index="183">
        -144 -144 return
      </CharString>
      <CharString index="184">
        144 180 return
      </CharString>
      <CharString index="185">
        90 144 90 return
      </CharString>
      <CharString index="186">
        -72 -108 return
      </CharString>
      <CharString index="187">
        -4 3 -4 return
      </CharString>
</ttFont>
